<svg width="428" height="429" viewBox="0 0 428 429" fill="none" xmlns="http://www.w3.org/2000/svg">
<path d="M275.274 243.742C285.477 268.807 299.214 245.376 307.276 235.011C315.338 224.646 313.685 206.214 297.129 208.912C280.594 211.616 261.687 210.353 275.274 243.742Z" fill="#8B9CBD"/>
<path d="M102.957 175.989C101.669 176.817 92.4327 179.34 106.953 185.658C117.87 190.409 138.044 187.312 144.624 179.142C151.195 170.947 102.957 175.989 102.957 175.989Z" fill="#6B6272"/>
<path d="M161.956 241.544C156.487 268.051 138.706 247.517 128.895 238.796C119.077 230.068 117.347 211.646 134.11 211.291C150.878 210.929 169.24 206.237 161.956 241.544Z" fill="#7189B8"/>
<path d="M118.512 104.13C118.512 104.13 118.505 104.137 118.491 104.152C111.263 110.445 104.687 118.428 100.724 128.086C88.2507 158.489 99.4585 182.009 116.108 184.708C126.637 186.422 136.867 181.035 143.351 173.956C147.094 169.858 149.593 165.196 150.182 161.013C150.595 158.048 150.056 155.313 148.293 153.194C143.984 147.975 141.049 144.573 139.171 141.363C136.878 137.464 136.169 133.83 136.503 127.55C137.105 116.103 156.996 90.5049 154.333 87.1615C153.136 85.6533 144.699 87.6288 134.632 93.0292C134.625 93.0224 134.618 93.0299 134.611 93.0372C129.427 95.8366 123.795 99.5276 118.512 104.13Z" fill="url(#paint0_linear_1_88)"/>
<path d="M278.291 270.644C277.277 266.104 279.94 266.233 285.121 263.434C290.301 260.634 308.942 259.453 309.664 263.426C310.387 267.399 310.985 275.884 303.446 277.55C295.91 279.224 279.356 275.436 278.291 270.644Z" fill="url(#paint1_linear_1_88)"/>
<path d="M289.296 212.169C294.056 217.817 302.535 225.167 312.368 219.783C322.201 214.398 334.868 181.886 330.314 172.178C325.768 162.478 281.631 162.587 278.143 178.521C274.655 194.455 284.572 206.555 289.296 212.169Z" fill="url(#paint2_linear_1_88)"/>
<path d="M322.749 167.413C323.865 168.14 331.822 170.425 319.452 175.639C310.152 179.559 292.804 176.633 287.05 169.548C281.301 162.441 322.749 167.413 322.749 167.413Z" fill="#6B6272"/>
<path d="M290.988 281.983C290.643 282.275 290.377 282.657 290.208 283.171C287.418 291.326 298.128 296.754 307.999 298.124C309.291 298.301 310.579 298.06 311.596 297.509C313.883 296.272 314.768 293.475 311.03 290.295C306.996 286.862 298.429 281.424 293.551 281.268C293.551 281.268 293.501 281.263 293.409 281.272C292.418 281.243 291.582 281.457 290.988 281.983Z" fill="#21557A"/>
<path d="M309.6 263.468C309.6 263.468 309.299 261.546 307.252 262.705C306.012 263.404 305.343 265.071 305.785 267.775C306.398 271.536 309.699 274.274 310.179 272.953C310.645 271.631 309.6 263.468 309.6 263.468Z" fill="#0A2449"/>
<path d="M278.532 319.672C280.503 316.052 278.427 306.762 275.354 299.943C275.35 299.934 275.35 299.934 275.35 299.934C274.039 297.011 272.526 294.549 271.084 293.174C266.249 288.601 260.647 296.7 258.237 300.847C257.778 301.642 257.765 302.782 258.084 304.135C258.089 304.144 258.084 304.157 258.093 304.175C258.566 306.224 259.788 308.732 261.315 311.176C264.091 315.586 267.876 319.774 270.195 320.646C274.667 322.306 275.874 324.564 278.532 319.672Z" fill="url(#paint3_linear_1_88)"/>
<path d="M306.211 266.264C305.548 274.587 316.523 277.291 326.225 276.423C326.536 276.401 326.854 276.371 327.15 276.334C331.339 275.865 334.511 271.103 328.144 267.995C323.047 265.511 312.313 262.071 308.027 263.879L308.02 263.887C306.971 264.326 306.306 265.087 306.211 266.264Z" fill="#12458F"/>
<path d="M277.873 310.571C276.219 310.38 270.426 312.464 270.817 320.35C270.882 321.836 282.417 311.089 277.873 310.571Z" fill="#0B1849"/>
<path d="M260.153 294.451C258.394 297.851 260.587 306.842 263.676 313.505C263.518 313.004 260.884 299.932 268.108 298.647C272.278 297.912 275.517 301.757 277.53 305.21C277.234 304.579 276.926 303.932 276.626 303.279C273.887 298.942 270.204 294.769 267.998 293.855C263.737 292.073 262.54 289.857 260.153 294.451Z" fill="#102264"/>
<path d="M274.97 312.741C280.687 309.203 285.662 327.804 286.67 336.442C287.679 345.079 281.418 345.046 278.436 341.068C271.416 331.669 266.707 317.863 274.97 312.741Z" fill="#21457A"/>
<path d="M284.238 343.434C284.238 343.434 285.477 342.94 283.65 340.826C281.824 338.725 278.447 338.627 277.415 339.688C276.376 340.743 284.238 343.434 284.238 343.434Z" fill="#0B1728"/>
<path d="M275.539 342.732C275.501 342.875 275.463 343.031 275.411 343.202C275.404 343.21 275.404 343.21 275.411 343.217C274.679 345.896 272.711 352.805 270.389 356.073C267.282 360.417 266.21 362.583 270.958 362.396C271.156 362.39 271.36 362.349 271.571 362.287C271.578 362.294 271.585 362.286 271.585 362.286C276.111 360.967 285.957 348.31 284.721 344.524C283.417 340.563 277.362 335.948 275.539 342.732Z" fill="#2F558C"/>
<path d="M309.963 227.793C309.551 234.135 297.813 247.176 296.987 240.543C296.161 233.909 288.606 222.063 295.926 222.781C303.238 223.493 310.42 220.721 309.963 227.793Z" fill="#9EAEC6"/>
<path d="M119.055 103.908C111.705 110.059 104.974 117.912 100.824 127.491C98.6015 132.602 97.0818 137.539 96.1421 142.212C96.0987 142.433 96.0625 142.66 96.0122 142.888C95.9943 143.009 95.9691 143.123 95.9439 143.237C95.5998 145.128 95.3534 146.974 95.1907 148.775C95.1919 148.817 95.1858 148.853 95.1801 148.902C93.7535 165.975 100.647 178.723 110.748 183.093C112.137 183.692 113.592 184.133 115.092 184.41C125.586 186.329 135.92 181.142 142.54 174.191C142.54 174.191 120.37 185.467 105.135 161.85C85.8351 131.892 118.107 104.924 119.055 103.908Z" fill="#915B46"/>
<path d="M281.776 99.7191C281.776 99.7191 281.786 99.7224 281.805 99.7291C291.154 101.84 300.729 105.749 308.799 112.371C334.201 133.22 335.491 159.242 322.114 169.516C313.658 176.018 302.096 176.129 293.03 172.972C287.791 171.14 283.38 168.221 280.877 164.818C279.108 162.404 278.285 159.74 278.832 157.039C280.15 150.4 281.12 146.013 281.251 142.296C281.42 137.776 280.32 134.241 277.047 128.871C271.088 119.079 241.434 105.979 242.193 101.773C242.531 99.8773 250.896 97.6143 262.32 97.5934C262.323 97.5839 262.332 97.5873 262.342 97.5906C268.234 97.5957 274.942 98.1741 281.776 99.7191Z" fill="url(#paint4_linear_1_88)"/>
<path d="M140.698 216.902C136.644 223.077 129.101 231.384 118.697 227.209C108.293 223.033 91.845 192.26 95.2103 182.08C98.5691 171.907 142.405 166.76 147.766 182.166C153.126 197.571 144.72 210.765 140.698 216.902Z" fill="url(#paint5_linear_1_88)"/>
<path d="M253.891 136.455C258.067 137.557 269.49 145.272 282.427 142.412C283.553 142.169 284.711 141.833 285.859 141.406C302.302 135.351 300.179 163.125 287.793 164.936C284.862 165.371 277.706 165.716 267.75 158.909C257.808 152.101 249.211 139.392 252.456 136.502C252.726 136.275 253.214 136.269 253.891 136.455Z" fill="#AF231D"/>
<path d="M164.951 125.88C161.492 128.465 153.787 139.895 140.72 142.086C139.585 142.282 138.386 142.404 137.161 142.437C119.647 142.978 132.012 167.937 144.175 164.981C147.056 164.286 153.821 161.928 160.505 151.889C167.175 141.855 170.39 126.852 166.299 125.386C165.964 125.277 165.509 125.454 164.951 125.88Z" fill="#AF231D"/>
<path d="M158.133 284.424C160.222 286.567 161.892 287.638 162.507 288.909C162.515 288.916 162.515 288.916 162.515 288.916C162.89 289.698 162.864 290.554 162.268 291.78C162.141 292.045 161.986 292.34 161.79 292.649C161.397 293.297 160.69 293.825 159.755 294.276L159.748 294.283C154.58 296.703 142.361 296.098 137.178 293.34C136.201 292.815 135.463 292.184 134.919 291.464L134.912 291.457C132.086 287.708 134.71 281.793 136.355 278.847C138.338 275.312 154.471 280.655 158.133 284.424Z" fill="url(#paint6_linear_1_88)"/>
<path d="M135.543 281.204C135.642 281.229 137.558 277.562 138.654 281.147C139.749 284.717 137.331 290.676 134.459 291.208C131.588 291.739 135.543 281.204 135.543 281.204Z" fill="#14243C"/>
<path d="M137.366 282.186C137.666 282.525 137.875 282.943 137.968 283.471C139.566 291.937 128.184 295.787 118.208 295.722C116.906 295.715 115.664 295.296 114.732 294.593C112.645 293.045 112.169 290.144 116.321 287.532C120.806 284.714 130.064 280.562 134.91 281.101C134.91 281.101 134.96 281.107 135.045 281.118C136.061 281.253 136.855 281.592 137.366 282.186Z" fill="#315D9D"/>
<path d="M147.735 273.632C150.144 269.661 147.74 269.176 144.078 265.407C140.417 261.638 124.283 256.309 122.321 259.822C120.36 263.335 117.006 271.053 123.137 274.308C129.26 277.571 145.198 277.826 147.735 273.632Z" fill="url(#paint7_linear_1_88)"/>
<path d="M121.639 261.489C121.639 261.489 124.429 258.76 125.098 265.37C125.566 270.026 121.279 273.9 120.277 270.885C118.928 266.827 121.639 261.489 121.639 261.489Z" fill="#0E2649"/>
<path d="M124.55 264.451C124.015 272.785 112.762 273.893 103.285 271.642C102.979 271.573 102.673 271.504 102.381 271.42C98.2984 270.351 95.8434 265.19 102.589 263.024C107.988 261.292 119.106 259.423 123.091 261.831L123.098 261.838C124.077 262.434 124.624 263.282 124.55 264.451Z" fill="#3A6BB1"/>
<path d="M168.697 299.972C169.564 304.001 164.948 312.326 160.074 317.999C160.067 318.006 160.067 318.006 160.067 318.006C157.984 320.44 155.837 322.374 154.065 323.286C148.136 326.306 145.049 316.955 143.91 312.296C143.694 311.404 144.003 310.306 144.692 309.099C144.699 309.091 144.698 309.077 144.712 309.063C145.744 307.231 147.625 305.17 149.78 303.257C153.689 299.811 158.503 296.864 160.974 296.682C165.732 296.354 167.529 294.529 168.697 299.972Z" fill="url(#paint8_linear_1_88)"/>
<path d="M145.755 312.267C147.498 312.375 153.261 315.64 151.945 323.867C151.698 325.423 140.972 311.967 145.755 312.267Z" fill="#142A48"/>
<path d="M168.697 299.972C169.564 304.001 164.948 312.326 160.074 317.999C160.373 317.552 166.508 305.252 159.578 301.503C155.579 299.342 151.298 302.119 148.354 304.909C148.82 304.373 149.3 303.822 149.78 303.257C153.689 299.811 158.503 296.864 160.974 296.683C165.732 296.354 167.529 294.529 168.697 299.972Z" fill="#133E7D"/>
<path d="M148.806 314.935C143.658 310.613 136.073 328.314 133.829 336.723C131.584 345.132 137.804 345.994 141.308 342.481C149.618 334.167 156.264 321.181 148.806 314.935Z" fill="#2E6AC0"/>
<path d="M135.245 343.97C135.245 343.97 134.087 343.302 136.202 341.475C138.316 339.649 141.659 340.045 142.54 341.237C143.408 342.444 135.245 343.97 135.245 343.97Z" fill="#0D203C"/>
<path d="M143.954 344.53C143.972 344.671 143.99 344.84 144.016 345.017C144.017 345.031 144.017 345.031 144.017 345.031C144.354 347.787 145.314 354.905 147.152 358.477C149.603 363.219 150.359 365.519 145.688 364.65C145.496 364.62 145.303 364.547 145.095 364.447C145.081 364.447 145.081 364.447 145.081 364.447C140.79 362.492 132.859 348.556 134.622 344.992C136.464 341.256 143.125 337.55 143.954 344.53Z" fill="#334D73"/>
<path d="M163.498 289.957C163.514 290.289 162.989 290.975 162.268 291.766C161.526 292.579 160.575 293.496 159.761 294.254L159.754 294.261C154.586 296.681 142.367 296.076 137.184 293.318C136.208 292.793 135.469 292.163 134.926 291.442C135.084 291.551 138.502 293.905 145.447 292.823C152.575 291.707 155.534 286.137 149.914 280.321C149.914 280.321 159.374 286.342 162.493 288.909C162.5 288.916 162.5 288.916 162.5 288.916C163.122 289.408 163.486 289.78 163.498 289.957Z" fill="#031D7C"/>
<path d="M267.591 284.614C265.502 286.756 263.832 287.828 263.217 289.099C263.209 289.106 263.209 289.106 263.209 289.106C263.209 289.106 262.86 290.744 263.456 291.97C263.583 292.235 263.738 292.53 263.934 292.839C264.327 293.487 265.034 294.015 265.969 294.465L265.976 294.473C271.144 296.892 283.363 296.287 288.546 293.53C289.523 293.005 290.261 292.374 290.805 291.654L290.812 291.647C293.638 287.897 291.014 281.982 289.369 279.037C287.386 275.502 271.253 280.845 267.591 284.614Z" fill="url(#paint9_linear_1_88)"/>
<path d="M290.384 280.252C290.272 280.283 288.246 276.269 286.924 280.277C285.603 284.27 288.124 290.813 291.304 291.321C294.483 291.828 290.384 280.252 290.384 280.252Z" fill="#14243C"/>
<path d="M262.226 290.147C262.21 290.479 262.735 291.165 263.456 291.956C264.198 292.769 265.149 293.686 265.963 294.444L265.97 294.451C271.138 296.871 283.357 296.266 288.54 293.508C289.516 292.983 290.255 292.353 290.798 291.632C290.64 291.741 287.222 294.095 280.277 293.012C273.149 291.897 270.19 286.326 275.81 280.511C275.81 280.511 266.35 286.532 263.231 289.099C263.223 289.106 263.223 289.106 263.223 289.106C262.602 289.598 262.238 289.97 262.226 290.147Z" fill="#031D7C"/>
<path d="M148.368 304.909C146.469 307.09 144.857 308.924 144.706 309.098C144.713 309.091 144.712 309.077 144.726 309.062C144.937 308.767 146.327 306.833 148.368 304.909Z" fill="#587EB7"/>
<path d="M137.308 282.103C137.703 282.602 137.876 282.958 137.975 283.478C139.573 291.944 128.191 295.794 118.215 295.728C116.913 295.722 115.671 295.303 114.739 294.6L116.784 292.832C117.161 293.161 128.664 292.414 134.166 286.964C137.21 283.952 137.242 282.303 136.306 281.444C136.306 281.444 136.919 281.597 137.308 282.103Z" fill="#204172"/>
<path d="M118.496 295.388C118.641 296.035 118.531 296.675 118.066 297.239C116.765 298.817 113.432 305.728 112.648 310.135C111.674 315.63 110.931 317.928 108.426 313.533C108.129 313.018 107.889 312.253 107.693 311.311C106.45 305.205 107.281 291.686 110.031 290.584C112.605 289.537 117.889 292.611 118.496 295.388Z" fill="#2E6BC5"/>
<path d="M138.381 334.285C144.065 326.722 150.516 310.99 143.604 317.143C136.692 323.296 132.696 341.847 138.381 334.285Z" fill="#85A2CD"/>
<path d="M134.641 346.47C134.521 348.27 137.462 353.862 138.531 353.649C139.403 353.469 138.869 350.513 138.837 348.321C138.773 343.399 134.931 342.352 134.641 346.47Z" fill="#587EB7"/>
<path d="M146.361 308.048C144.49 310.505 145.491 312.168 147.39 310.234C149.289 308.315 149.378 304.089 146.361 308.048Z" fill="#819DC5"/>
<path d="M107.72 298.132C106.861 305.236 110.126 302.006 111.515 297.207C112.903 292.408 108.877 288.501 107.72 298.132Z" fill="#4483E1"/>
<path d="M124.55 264.451C124.015 272.785 112.762 273.893 103.285 271.642C103.799 270.503 104.307 269.443 104.307 269.443C104.556 270.009 110.546 271.231 117.862 267.429C123.769 264.359 123.434 262.459 123.091 261.831C124.077 262.434 124.624 263.282 124.55 264.451Z" fill="#456BA4"/>
<path d="M103.653 275.763C107.33 274.658 104.006 266.459 100.655 265.766C97.3117 265.079 86.9223 279.562 86.6126 283.991C86.2561 289.038 88.1532 287.543 92.0035 283.504C95.1049 280.271 101.703 276.354 103.653 275.763Z" fill="#587EB7"/>
<path d="M95.7617 269.423C89.5808 276.942 91.8149 277.157 96.2295 273.831C101.968 269.514 100.293 263.908 95.7617 269.423Z" fill="#5998F3"/>
<path opacity="0.63" d="M125.999 260.301C131.798 259.222 137.649 262.86 134.255 263.958C133.014 264.353 130.193 264.904 128.557 264.32C125.699 263.295 124.338 260.602 125.999 260.301Z" fill="#2674E7"/>
<path d="M118.496 295.388C118.496 295.388 118.865 296.206 118.066 297.239C116.808 298.844 113.432 305.728 112.648 310.135C111.674 315.63 110.931 317.928 108.426 313.533C108.129 313.018 107.889 312.253 107.693 311.311C107.7 311.304 107.7 311.304 107.7 311.304C107.7 311.304 109.394 314.242 110.298 310.1C111.738 303.532 117.893 297.117 118.392 296.24C118.594 295.881 118.496 295.388 118.496 295.388Z" fill="#3B77CF"/>
<path d="M107.842 262.406C105.225 263.178 104.013 267.484 114.01 264.967C120.761 263.275 113.975 260.597 107.842 262.406Z" fill="#74A1E2"/>
<path d="M281.402 99.694C290.755 101.8 300.34 105.681 308.409 112.3C312.729 115.824 316.339 119.517 319.314 123.24C319.453 123.414 319.592 123.601 319.739 123.781C319.812 123.878 319.885 123.96 319.952 124.065C321.125 125.589 322.193 127.109 323.162 128.645C323.184 128.68 323.206 128.715 323.228 128.749C332.321 143.277 332.04 157.757 325.066 166.275C324.101 167.44 323.019 168.51 321.814 169.434C313.377 175.947 302.054 175.749 292.977 172.61C292.977 172.61 317.183 174.676 319.1 146.625C321.679 108.943 282.709 100.16 281.402 99.694Z" fill="#924C31"/>
<path d="M282.427 142.412C282.427 142.412 279.427 146.746 279.881 158.384C280.076 163.401 281.56 164.146 280.872 163.302C280.184 162.457 278.672 160.971 277.811 152.556C277.404 148.563 276.523 146.366 272.225 145.423C267.115 144.305 259.508 140.835 253.898 136.448C258.067 137.557 269.49 145.272 282.427 142.412Z" fill="#83070F"/>
<path d="M139.879 142.843C139.879 142.843 144.58 145.889 148.856 157.45C150.701 162.433 149.547 163.751 149.879 162.652C150.212 161.553 151.092 159.499 148.522 150.928C147.301 146.863 147.274 144.364 151.108 141.735C155.666 138.612 161.72 132.198 165.443 125.68C161.804 128.42 153.729 140.501 139.879 142.843Z" fill="#83070F"/>
<path d="M272.396 296.06C273.962 298.493 275.299 300.543 275.425 300.73C275.417 300.723 275.417 300.709 275.41 300.702C275.238 300.374 274.14 298.261 272.396 296.06Z" fill="#3E5BB5"/>
<path d="M151.951 211.352C141.324 219.235 139.369 228.428 135.639 238.363C125.859 264.465 175.716 327.862 217.891 326.611C246.735 325.754 311.009 259.928 283.512 223.823C280.041 219.271 276.787 213.34 272.105 209.529C270.557 208.27 264.895 207.923 263.215 206.76C261.759 205.767 259.909 203.052 258.019 202.736C256.135 202.413 251.965 201.756 250.415 200.978C248.249 199.878 246.974 198.548 244.871 197.686C242.868 196.878 238.015 198.136 235.954 197.549C233.616 196.892 231.377 196.232 229.062 195.666C227.018 195.163 223.882 196.077 221.596 195.786C217.599 195.266 214.752 192.062 209.01 192.631C206.576 192.874 202.385 195.062 200.047 195.438C197.054 195.923 191.595 194.708 188.798 195.379C186.415 195.947 181.772 198.67 179.556 199.382C176.443 200.373 172.947 200.561 170.213 201.747C167.935 202.743 164.887 205.352 162.873 206.476C160.163 207.972 154.176 209.7 151.951 211.352Z" fill="url(#paint10_linear_1_88)"/>
<path d="M151.951 211.352C153.999 210.207 162.234 211.777 170.891 205.569C179.556 199.368 189.916 199.274 197.456 201.302C204.996 203.33 210.691 194.607 225.319 201.541C239.947 208.474 242.738 210.675 252.149 213.883C261.561 217.09 289.98 232.147 278.619 269.738C267.266 307.322 228.234 323.292 217.884 326.604C246.728 325.747 311.002 259.921 283.504 223.816C280.033 219.264 276.779 213.333 272.098 209.522C270.549 208.263 264.888 207.916 263.208 206.753C261.752 205.76 259.902 203.045 258.011 202.729C256.128 202.406 251.958 201.75 250.408 200.972C248.242 199.871 246.967 198.541 244.864 197.679C242.861 196.871 238.008 198.129 235.947 197.542C233.609 196.885 231.37 196.225 229.055 195.659C227.011 195.156 223.874 196.07 221.589 195.779C217.592 195.26 214.745 192.056 209.003 192.624C206.569 192.867 202.378 195.055 200.039 195.431C197.046 195.916 191.588 194.701 188.791 195.372C186.408 195.94 181.765 198.663 179.549 199.375C176.436 200.366 172.939 200.554 170.206 201.74C167.927 202.736 164.88 205.345 162.866 206.469C160.163 207.972 154.176 209.7 151.951 211.352Z" fill="#919071"/>
<path opacity="0.37" d="M208.997 313.401C240.506 329.965 269.661 278.636 262.783 264.125C255.912 249.622 160.521 287.924 208.997 313.401Z" fill="#A49264"/>
<path d="M273.838 211.073C273.313 210.479 288.448 225.59 289.325 235.094C290.201 244.598 290.412 252.508 285.931 265.01C285.051 263.888 293.285 244.818 283.967 230.848C274.641 216.872 287.806 226.937 273.838 211.073Z" fill="#7A7055"/>
<path d="M291.057 281.896C290.595 282.34 290.37 282.664 290.2 283.164C287.411 291.319 298.121 296.747 307.991 298.117C309.284 298.294 310.572 298.054 311.589 297.502L309.814 295.464C309.39 295.737 298.12 293.345 293.458 287.17C290.874 283.747 291.084 282.114 292.132 281.399C292.139 281.392 291.518 281.452 291.057 281.896Z" fill="#4B6EA2"/>
<path d="M306.547 298.829C306.316 299.451 306.327 300.094 306.712 300.72C307.771 302.467 310.081 309.788 310.225 314.262C310.399 319.838 310.804 322.218 313.92 318.228C314.282 317.758 314.637 317.034 314.966 316.133C317.076 310.268 318.176 296.769 315.624 295.276C313.216 293.892 307.549 296.17 306.547 298.829Z" fill="#2F558C"/>
<path d="M282.519 333.394C277.976 325.101 273.845 308.605 279.797 315.685C285.764 322.765 287.069 341.694 282.519 333.394Z" fill="#3278DF"/>
<path d="M284.471 345.981C284.336 347.781 280.629 352.892 279.593 352.517C278.764 352.214 279.704 349.359 280.055 347.199C280.827 342.353 284.782 341.87 284.471 345.981Z" fill="#2C89BE"/>
<path d="M271.127 307.174C272.623 309.871 271.391 311.376 269.796 309.191C268.194 307 268.709 302.82 271.127 307.174Z" fill="#586C89"/>
<path d="M275.404 343.224C274.672 345.904 272.704 352.812 270.382 356.08C267.275 360.424 266.203 362.59 270.952 362.403C271.149 362.397 271.353 362.356 271.564 362.294C271.344 362.265 268.53 361.819 270.264 358.765C272.067 355.624 274.559 348.482 275.404 343.224Z" fill="#6782A9"/>
<path opacity="0.34" d="M318.131 207.38C310.19 213.384 302.089 210.495 303.72 198.545C305.351 186.595 332.043 173.843 329.128 185.637C326.212 197.431 325.879 201.536 318.131 207.38Z" fill="url(#paint11_linear_1_88)"/>
<path opacity="0.34" d="M124.724 176.53C134.555 178.106 138.076 185.954 128.321 193.047C118.567 200.14 90.8888 189.699 101.42 183.641C111.951 177.583 115.144 174.982 124.724 176.53Z" fill="url(#paint12_linear_1_88)"/>
<path d="M307.888 121.39C313.536 132.807 300.876 121.568 287.498 113.037C274.121 104.506 297.102 99.5738 307.888 121.39Z" fill="#93A7CE" fill-opacity="0.65"/>
<path d="M147.283 90.1307C131.891 94.5362 120.336 108.81 130.386 106.674C140.443 104.544 154.723 88.0022 147.283 90.1307Z" fill="#85AFEB" fill-opacity="0.7"/>
<path opacity="0.62" d="M325.751 188.623C325.292 190.97 322.314 194.596 321.028 194.122C319.37 193.502 319.519 188.108 321.11 185.787C323.918 181.656 326.868 182.933 325.751 188.623Z" fill="#D7CFCA"/>
<path d="M316.822 303.088C316.65 310.237 313.883 306.571 313.195 301.624C312.508 296.692 317.05 293.391 316.822 303.088Z" fill="#3D7CD6"/>
<path d="M306.211 266.264C305.548 274.587 316.523 277.291 326.225 276.423C325.881 275.216 325.532 274.101 325.532 274.101C325.207 274.619 319.098 274.978 312.408 270.161C306.996 266.278 307.604 264.443 308.034 263.872C306.971 264.326 306.306 265.087 306.211 266.264Z" fill="#2D5B9E"/>
<path d="M325.268 280.446C321.793 278.823 326.251 271.188 329.669 270.981C333.081 270.781 341.289 286.606 340.958 291.029C340.588 296.076 338.926 294.31 335.689 289.773C333.092 286.131 327.117 281.315 325.268 280.446Z" fill="#274F8A"/>
<path d="M333.997 275.297C339.043 283.626 336.798 283.525 332.898 279.6C327.835 274.505 330.299 269.195 333.997 275.297Z" fill="#3871C4"/>
<path opacity="0.63" d="M304.737 261.565C300.024 260.202 296.194 263.186 299.05 264.402C300.088 264.847 302.392 265.527 303.547 265.092C305.556 264.336 306.078 261.952 304.737 261.565Z" fill="#3974C9"/>
<path opacity="0.63" d="M283.486 283.484C283.741 281.674 286.142 281.275 284.154 280.495C282.166 279.715 278.063 280.21 279.095 281.985C280.127 283.761 283.298 284.862 283.486 283.484Z" fill="#356BBA"/>
<path d="M306.547 298.829C306.547 298.829 306.065 299.585 306.712 300.72C307.73 302.496 310.081 309.788 310.225 314.262C310.399 319.838 310.804 322.218 313.92 318.228C314.282 317.758 314.637 317.034 314.966 316.134C314.959 316.127 314.959 316.127 314.959 316.127C314.959 316.127 312.861 318.795 312.56 314.559C312.079 307.852 306.907 300.616 306.535 299.685C306.383 299.308 306.547 298.829 306.547 298.829Z" fill="#2D5B9E"/>
<path d="M324.489 266.78C326.913 267.987 327.748 272.123 318.457 267.887C312.19 265.038 318.823 263.951 324.489 266.78Z" fill="#3B77CF"/>
<path d="M308.263 288.419C310.334 290.173 310.152 294.38 302.141 288.05C296.74 283.791 303.432 284.315 308.263 288.419Z" fill="#3F80DE"/>
<path opacity="0.34" d="M144.515 233.945C135.899 248.096 147.603 275.793 158.273 287.985C172.587 304.328 158.915 263.217 170.154 248.23C177.189 238.862 196.573 217.03 185.8 210.868C177.916 206.352 157.787 212.14 144.515 233.945Z" fill="url(#paint13_linear_1_88)"/>
<path opacity="0.62" d="M113.239 132.077C111.166 150.866 99.3974 147.836 101.707 138.428C104.989 125.054 114.03 115.56 116.505 115.534C118.98 115.509 114.405 121.491 113.239 132.077Z" fill="#7B8399"/>
<path opacity="0.44" d="M128.88 206.178C123.637 213.786 118.106 209.977 123.748 204.157C129.381 198.334 134.536 197.983 128.88 206.178Z" fill="#9FB4E0"/>
<path opacity="0.62" d="M302.848 151.666C296.902 130.672 308.195 131.833 310.732 143.831C313.269 155.843 306.38 164.125 302.848 151.666Z" fill="#A3B3C9"/>
<path opacity="0.62" d="M251.278 220.259C255.431 222.592 260.244 230.701 263.428 232.021C266.598 233.342 275.879 239.51 277.092 246.593C278.298 253.668 275.531 272.943 260.984 291.09C246.437 309.238 251.99 288.388 255.961 277.661C259.931 266.934 259.571 254.063 253.687 250.009C247.803 245.954 244.311 235.475 241.237 230.707C234.44 220.17 228.874 225.352 224.538 220.725C220.209 216.09 239.481 213.637 251.278 220.259Z" fill="#493831"/>
<path opacity="0.62" d="M241.382 309.342C235.575 318.867 223.094 315.164 233.651 308.578C244.201 301.985 245.233 303.018 241.382 309.342Z" fill="#AAAC9F"/>
<ellipse cx="185.5" cy="197" rx="3.5" ry="3" fill="#484444"/>
<ellipse cx="236.5" cy="197" rx="3.5" ry="3" fill="#484444"/>
<defs>
<linearGradient id="paint0_linear_1_88" x1="95.8396" y1="156.769" x2="158.005" y2="125.126" gradientUnits="userSpaceOnUse">
<stop stop-color="#751612"/>
<stop offset="0.031" stop-color="#71211E"/>
<stop offset="0.473" stop-color="#C03F3A"/>
<stop offset="1" stop-color="#D91E17"/>
</linearGradient>
<linearGradient id="paint1_linear_1_88" x1="281.877" y1="271.024" x2="310.303" y2="270.854" gradientUnits="userSpaceOnUse">
<stop offset="0.1646" stop-color="#03152F"/>
<stop offset="0.1847" stop-color="#122542"/>
<stop offset="0.2866" stop-color="#102E59"/>
<stop offset="0.3983" stop-color="#253C5F"/>
<stop offset="0.526" stop-color="#2E4567"/>
<stop offset="0.7055" stop-color="#3C557A"/>
</linearGradient>
<linearGradient id="paint2_linear_1_88" x1="283.797" y1="197.958" x2="328.526" y2="188.447" gradientUnits="userSpaceOnUse">
<stop stop-color="#7C8AB4"/>
<stop offset="0.2512" stop-color="#7C92D7"/>
<stop offset="0.5352" stop-color="#7F94CB"/>
<stop offset="0.666667" stop-color="#7D82AA"/>
<stop offset="0.8161" stop-color="#97725B"/>
</linearGradient>
<linearGradient id="paint3_linear_1_88" x1="274.356" y1="320.832" x2="266.903" y2="302.616" gradientUnits="userSpaceOnUse">
<stop stop-color="#153C75"/>
<stop offset="1" stop-color="#406599"/>
</linearGradient>
<linearGradient id="paint4_linear_1_88" x1="326.705" y1="135.306" x2="256.968" y2="136.936" gradientUnits="userSpaceOnUse">
<stop stop-color="#751612"/>
<stop offset="0.031" stop-color="#71211E"/>
<stop offset="0.473" stop-color="#C03F3A"/>
<stop offset="1" stop-color="#D91E17"/>
</linearGradient>
<linearGradient id="paint5_linear_1_88" x1="144.465" y1="202.137" x2="98.9225" y2="198.02" gradientUnits="userSpaceOnUse">
<stop stop-color="#7C8AB4"/>
<stop offset="0.2512" stop-color="#7C92D7"/>
<stop offset="0.5352" stop-color="#7F94CB"/>
<stop offset="0.666667" stop-color="#7D82AA"/>
<stop offset="0.8161" stop-color="#97725B"/>
</linearGradient>
<linearGradient id="paint6_linear_1_88" x1="157.976" y1="292.339" x2="133.868" y2="282.896" gradientUnits="userSpaceOnUse">
<stop stop-color="#3C557A"/>
<stop offset="1" stop-color="#27497B"/>
</linearGradient>
<linearGradient id="paint7_linear_1_88" x1="144.43" y1="273.17" x2="120.115" y2="264.28" gradientUnits="userSpaceOnUse">
<stop offset="0.1646" stop-color="#03152F"/>
<stop offset="0.1847" stop-color="#122542"/>
<stop offset="0.2866" stop-color="#102E59"/>
<stop offset="0.3983" stop-color="#253C5F"/>
<stop offset="0.526" stop-color="#2E4567"/>
<stop offset="0.7055" stop-color="#3C557A"/>
</linearGradient>
<linearGradient id="paint8_linear_1_88" x1="165.018" y1="297.679" x2="152.722" y2="313.047" gradientUnits="userSpaceOnUse">
<stop stop-color="#153C75"/>
<stop offset="1" stop-color="#406599"/>
</linearGradient>
<linearGradient id="paint9_linear_1_88" x1="267.748" y1="292.529" x2="291.855" y2="283.086" gradientUnits="userSpaceOnUse">
<stop stop-color="#3C557A"/>
<stop offset="1" stop-color="#27497B"/>
</linearGradient>
<linearGradient id="paint10_linear_1_88" x1="228.407" y1="327.566" x2="202.177" y2="192.673" gradientUnits="userSpaceOnUse">
<stop offset="0.0575174" stop-color="#8D7D66"/>
<stop offset="0.154623" stop-color="#B79F7E"/>
<stop offset="0.250925" stop-color="#B99B77"/>
<stop offset="0.307292" stop-color="#B18F73"/>
<stop offset="0.439247" stop-color="#94644A"/>
<stop offset="0.536458" stop-color="#6B616C"/>
<stop offset="0.6678" stop-color="#705D70"/>
<stop offset="1" stop-color="#99856A"/>
</linearGradient>
<linearGradient id="paint11_linear_1_88" x1="301.15" y1="203.482" x2="331.081" y2="189.462" gradientUnits="userSpaceOnUse">
<stop stop-color="#2A3FF1"/>
<stop offset="0.1427" stop-color="#3255DD"/>
<stop offset="0.3102" stop-color="#143BDB"/>
<stop offset="0.4939" stop-color="#1A7AAC"/>
<stop offset="0.7042" stop-color="#8AA3B0"/>
<stop offset="1" stop-color="#778D98"/>
</linearGradient>
<linearGradient id="paint12_linear_1_88" x1="133.664" y1="191.485" x2="102.829" y2="179.583" gradientUnits="userSpaceOnUse">
<stop stop-color="#D7DAF7"/>
<stop offset="0.1427" stop-color="#CCD3F0"/>
<stop offset="0.3102" stop-color="#D8DFFB"/>
<stop offset="0.4939" stop-color="#CBA5A5"/>
<stop offset="0.7042" stop-color="#CCACAC"/>
<stop offset="1" stop-color="#AB9B9B"/>
</linearGradient>
<linearGradient id="paint13_linear_1_88" x1="188.958" y1="275.447" x2="153.715" y2="220.798" gradientUnits="userSpaceOnUse">
<stop offset="0.00446928" stop-color="#A5966F" stop-opacity="0.3"/>
<stop offset="0.0859" stop-color="#968965" stop-opacity="0.2655"/>
<stop offset="0.2024" stop-color="#786D51" stop-opacity="0.3591"/>
<stop offset="0.3265" stop-color="#74563A" stop-opacity="0.4588"/>
<stop offset="0.4588" stop-color="#664C33" stop-opacity="0.5651"/>
<stop offset="0.6029" stop-color="#473524" stop-opacity="0.6809"/>
<stop offset="0.7679" stop-color="#473524" stop-opacity="0.8135"/>
<stop offset="1" stop-color="#252026"/>
</linearGradient>
</defs>
</svg>
