<svg width="108" height="108" viewBox="0 0 108 108" fill="none" xmlns="http://www.w3.org/2000/svg">
<path d="M98.0212 42.139C95.769 31.7645 89.7604 22.5891 81.1512 16.3775C72.5419 10.1659 61.94 7.35689 51.3846 8.49067C40.8291 9.62446 31.0656 14.621 23.9719 22.5192C16.8783 30.4175 12.9554 40.6597 12.9578 51.2758C12.9629 57.7203 14.4152 64.0813 17.2076 69.8893C20 75.6974 24.0612 80.8041 29.0913 84.8326C34.1213 88.8612 39.9919 91.7086 46.2697 93.1647C52.5475 94.6208 59.0722 94.6484 65.362 93.2455C76.4566 90.7649 86.1187 83.9946 92.2379 74.4135C98.3572 64.8324 100.436 53.2191 98.0212 42.11V42.139ZM70.5769 63.2637C67.7577 66.68 63.8236 68.992 59.4673 69.7927C55.111 70.5935 50.6118 69.8316 46.762 67.6412C42.9123 65.4508 39.9587 61.9724 38.4215 57.8184C36.8842 53.6645 36.8618 49.1013 38.3582 44.9325C39.8547 40.7636 42.7739 37.2564 46.602 35.0284C50.4301 32.8003 54.9216 31.9943 59.2855 32.7523C63.6495 33.5102 67.6061 35.7835 70.4587 39.1719C73.3113 42.5604 74.877 46.8466 74.88 51.2758C74.8754 55.6492 73.3547 59.8858 70.5769 63.2637Z" fill="#D6F0FF" fill-opacity="0.41"/>
<path d="M74.4024 12.4032C74.523 16.6677 73.5582 21.0866 72.2509 25.1678C71.0448 28.9451 69.4336 32.8285 67.0553 35.969C64.701 34.2614 61.9838 33.1213 59.1159 32.6376C56.2481 32.1539 53.3072 32.3397 50.5231 33.1806C48.6056 25.3339 45.7603 17.7436 42.0471 10.5701C52.6588 6.93985 64.2687 7.59764 74.4024 12.4032V12.4032Z" fill="#FF7954" fill-opacity="0.7"/>
<path opacity="0.17" d="M76.554 36.6009C74.8992 34.6477 72.9255 32.9889 70.7168 31.6948C66.1102 29.0451 60.8165 27.8338 55.516 28.2166C50.6312 28.5213 45.9334 30.2077 41.97 33.0793C38.114 35.8656 35.3004 39.8611 33.9764 44.4304C31.9358 51.6907 35.004 60.8324 41.8638 64.5132C41.8638 64.2961 41.8638 64.079 41.8928 63.8571C38.6806 60.2767 36.951 55.6082 37.0552 50.7992C37.1594 45.9902 39.0895 41.4009 42.4538 37.963C45.818 34.5251 50.3644 32.4961 55.17 32.2877C59.9756 32.0794 64.6805 33.7074 68.3296 36.8414C71.9788 39.9753 74.2987 44.3802 74.8187 49.1622C75.3386 53.9442 74.0196 58.7448 71.1292 62.5897C68.2389 66.4347 63.9939 69.0358 59.2558 69.8652C54.5177 70.6946 49.6415 69.69 45.617 67.0555C46.2854 68.8614 47.4187 70.4589 48.9022 71.6866C49.3225 72.0639 49.7744 72.4045 50.2529 72.7045C50.7736 73.042 51.315 73.3465 51.8738 73.6163L52.3563 73.8478L52.583 73.9395C52.858 74.0456 53.1329 74.1421 53.4176 74.2289C53.7022 74.3158 54.035 74.4074 54.3486 74.4798L54.6863 74.557L55.024 74.6245C57.7496 75.0538 60.3884 74.5425 62.9645 73.6597C65.6633 72.6723 68.1985 71.2852 70.4852 69.5447C72.5976 67.9764 74.5223 66.1699 76.2211 64.161C77.0274 63.2029 77.7627 62.1871 78.4209 61.1218C78.7875 60.5333 79.13 59.9255 79.4484 59.308C79.7234 58.7677 80.0128 58.1502 80.1817 57.7353C80.6925 56.4731 81.0803 55.1645 81.3395 53.8278C81.4567 53.2517 81.5341 52.6682 81.571 52.0815C81.6193 51.4736 81.6434 50.861 81.6386 50.2531C81.6263 47.7677 81.1654 45.3049 80.2782 42.9832C79.3918 40.6675 78.1339 38.5118 76.554 36.6009Z" fill="#185469" fill-opacity="0.53"/>
<path d="M99.0005 51.2758C99.0089 58.4065 97.2345 65.4261 93.8387 71.6963C88.3923 72.0918 82.8832 70.3359 77.9192 67.9238C75.28 66.6874 72.808 65.1215 70.5624 63.2637C72.2918 61.1685 73.5469 58.7235 74.2415 56.097C74.936 53.4705 75.0534 50.7247 74.5857 48.0485C82.8312 48.7204 91.067 46.6423 98.0067 42.139C98.6643 45.1402 98.9974 48.2034 99.0005 51.2758V51.2758Z" fill="#FF7954" fill-opacity="0.7"/>
<path d="M65.362 93.26C56.6246 95.2084 47.4972 94.3856 39.2492 90.9058C38.9976 90.0444 38.801 89.1679 38.6606 88.2815C37.4625 80.3753 39.2903 72.3081 43.779 65.6903C45.9986 67.5749 48.6245 68.9198 51.451 69.6195C54.2774 70.3192 57.2275 70.3547 60.07 69.7232C59.4477 75.6038 60.509 81.6966 62.6557 87.2444C63.4517 89.2946 64.3827 91.2869 65.362 93.26Z" fill="#FF7954" fill-opacity="0.7"/>
<path d="M37.0783 51.2758C37.0785 52.0418 37.1252 52.807 37.2182 53.5673C33.3237 52.8141 29.3108 52.931 25.4667 53.9098C21.2939 54.9856 17.4587 57.0406 13.6766 59.1054C12.244 51.3692 12.9615 43.3883 15.751 36.0317C24.4808 34.2595 33.5471 35.2841 41.6612 38.9599C38.7007 42.3796 37.0734 46.7527 37.0783 51.2758V51.2758Z" fill="#FF7954" fill-opacity="0.7"/>
<path opacity="0.36" d="M21.0478 30.5129C15.5242 42.9784 14.434 57.827 20.2615 70.1574C26.089 82.4878 39.5 91.4654 53.0654 90.023C54.556 89.8687 56.0998 89.5406 57.2624 88.624C58.425 87.7075 59.0618 85.9418 58.3237 84.6393C57.5856 83.3368 55.8634 82.9798 54.3583 82.8255C48.4873 82.2225 42.2256 82.2418 37.2327 79.0916C33.166 76.53 30.5417 72.1931 28.7181 67.7453C23.6862 55.32 23.7886 41.406 29.0028 29.056C29.5768 27.7101 30.0303 25.7756 28.7374 25.0954C27.8305 24.613 26.7451 25.2016 25.9298 25.8142C23.8555 27.3483 21.7087 28.9981 21.0478 30.5129Z" fill="white" fill-opacity="0.13"/>
<path opacity="0.36" d="M77.4754 19.6924C88.7975 29.3406 97.2204 43.7406 95.7008 58.5458C95.1895 63.5677 93.3804 68.7101 89.5018 71.9423C88.2862 72.9554 86.3469 73.7079 85.247 72.5646C84.5813 71.8748 84.5764 70.7942 84.6681 69.839C85.1119 65.3767 86.8341 61.1556 87.6542 56.7319C90.0036 44.1024 84.1519 30.3344 73.4279 23.2623C72.1688 22.4277 70.6975 21.4484 70.601 19.9433C70.4901 18.168 72.5307 16.8848 74.3011 17.0971C76.0715 17.3093 77.5332 18.5009 77.4754 19.6924Z" fill="white" fill-opacity="0.13"/>
<path d="M105.542 35.2598C104.206 33.7595 102.387 32.8478 100.549 32.1C98.383 31.1352 96.9985 30.7445 94.7022 29.3503C92.7996 28.1261 91.251 26.4245 90.211 24.4152C88.923 22.0466 88.0594 19.4802 86.81 17.0971C84.2677 12.1572 81.0452 7.36203 76.5395 4.00445C70.794 0.0486856 63.2636 -0.964376 56.5918 0.9122C55.3858 1.25954 54.1798 1.67441 53.0365 2.1134C52.9947 2.11104 52.9528 2.11104 52.911 2.1134C52.7688 2.11001 52.6277 2.1396 52.4988 2.19986C52.3699 2.26012 52.2567 2.34941 52.1681 2.46074C50.3108 3.18918 48.5693 3.95138 47.0883 4.57369C43.422 6.16082 40.7736 7.28484 36.8468 8.91539C34.1887 9.90433 31.5644 11.0959 29.5093 13.1413C28.9449 13.836 27.4977 14.6368 27.8546 15.6691C25.1097 18.332 21.2263 20.0301 17.367 22.254C7.67059 27.9079 1.44749 35.2164 0.236644 46.6978C-0.284359 50.9816 0.000263271 55.4776 1.64046 59.4768C2.45573 61.6091 3.92226 63.3795 5.40326 65.0824C8.29772 68.5751 12.2969 70.7121 16.0549 73.1049C20.3966 75.9994 23.4116 81.5181 26.4653 86.926C28.8773 91.0071 31.3859 95.18 34.9895 98.3253C37.3755 100.342 39.9034 102.185 42.5537 103.839C44.4158 104.987 46.3213 106.121 48.4294 106.734C50.9476 107.472 53.5864 107.216 56.0998 106.584C59.084 105.87 61.9682 104.79 64.6867 103.367C67.5826 101.777 70.2035 99.7309 72.4486 97.3074C74.6002 94.852 76.2838 92.0395 78.2376 89.4248C79.3375 87.8522 81.8412 86.0046 84.5813 84.731C86.3179 83.9061 88.648 83.2259 91.0407 82.2128C95.4902 80.2998 99.357 77.2482 102.252 73.3654C104.182 70.9534 105.089 67.9383 105.552 64.9232C106.261 60.3114 105.928 55.6272 106.126 50.9816C106.439 46.5289 109.609 40.2672 105.542 35.2598ZM103.897 50.4075C103.559 57.6437 104.63 65.1693 101.548 70.6687C98.8365 75.0973 94.6154 78.4307 89.2172 80.7029C88.0787 81.1226 84.0844 82.4878 82.1403 83.6311C80.112 84.7286 78.3112 86.202 76.8338 87.9728C73.809 91.9961 72.0531 95.4164 68.1504 98.4797C64.9908 100.992 61.3732 102.866 57.4988 103.998C53.789 104.997 51.5651 105.561 48.3957 104.481C47.0208 104.08 44.8982 102.754 43.0457 101.586C39.7605 99.377 37.6476 97.9201 34.8785 95.1655C31.8972 91.943 29.3694 87.5097 26.7982 83.1053C24.4922 79.1688 22.1188 75.0973 18.4959 72.2124C16.6965 70.7025 14.5787 69.6557 12.6056 68.4062C9.15641 66.3849 4.88708 61.8696 3.61352 58.8931C1.20146 52.7858 1.68388 46.7122 3.61352 40.4698C4.2503 38.106 6.31019 34.6809 7.60305 32.9684C10.2997 29.6687 12.6394 27.8789 16.0259 25.6213C20.0685 23.079 24.4971 21.0962 28.0862 17.9027C29.1832 17.0128 30.1339 15.9564 30.9035 14.7718C31.1736 14.5065 31.4534 14.246 31.7525 14.0048C32.4568 13.3198 34.8737 11.9353 36.6393 11.2937C39.7316 10.0394 45.0477 7.7576 49.457 5.83761C52.1351 4.55152 54.9173 3.49449 57.7737 2.67782C59.9783 2.06516 63.963 1.93009 65.6081 2.18576C69.7713 2.66817 73.6884 4.31319 76.1053 6.34414C80.0032 9.72101 82.4201 13.4066 84.9093 18.25C86.9065 22.1817 88.1608 26.6777 91.5859 29.6783C93.7181 31.579 96.41 32.703 98.9571 33.8898C101.683 35.1585 103.497 35.8821 104.457 37.8455C106.401 41.2513 104.519 45.2168 103.897 50.4075V50.4075Z" fill="#FAD155" fill-opacity="0.67"/>
<path d="M24.6852 17.4155C25.8453 18.4074 27.0736 19.3165 28.3612 20.1363C28.8176 20.4718 29.3493 20.6904 29.9097 20.773C30.1891 20.8065 30.4716 20.7447 30.7115 20.5976C30.9514 20.4505 31.1346 20.2268 31.2315 19.9626C31.2832 19.7055 31.2665 19.4394 31.1833 19.1907C30.5851 17.0295 28.4335 15.6836 26.3206 14.9455C25.7272 14.7381 25.0277 14.5741 24.4971 14.9117C23.8748 15.3121 23.812 16.248 24.169 16.8993C24.526 17.5505 25.1676 17.9702 24.6852 17.4155Z" fill="#FEB223" fill-opacity="0.26"/>
<path d="M91.6872 22.9535C90.0319 23.5787 88.5276 24.547 87.2731 25.7949C86.6548 26.3377 86.2074 27.0482 85.9851 27.8403C85.8896 28.2354 85.9251 28.6508 86.086 29.024C86.247 29.3972 86.5247 29.7081 86.8775 29.9099C87.5529 30.209 88.3248 29.9485 89.005 29.6542C90.3216 29.0682 91.5704 28.3403 92.7292 27.4834C93.4673 26.9334 94.2391 26.1857 94.1764 25.2691C94.1256 24.9258 93.9832 24.6026 93.7641 24.3335C93.5451 24.0644 93.2576 23.8593 92.9318 23.7399C92.2853 23.489 91.5762 23.4794 91.6872 22.9535Z" fill="#FEB223" fill-opacity="0.26"/>
<path d="M76.0185 84.9818C76.2781 86.0689 76.7776 87.0841 77.4804 87.953C78.1833 88.8219 79.0716 89.5226 80.0804 90.0037C80.9246 90.4041 82.1258 90.5392 82.6082 89.7432C82.7896 89.3897 82.8538 88.9876 82.7915 88.5951C82.6047 86.9674 81.8358 85.4621 80.6266 84.3566C79.4174 83.2511 77.8493 82.6199 76.2114 82.5794C75.9961 83.3609 75.9306 84.176 76.0185 84.9818V84.9818Z" fill="#FEB223" fill-opacity="0.26"/>
<path d="M23.0305 72.3234C20.85 73.8575 18.5248 75.5797 17.7674 78.1364C17.6878 78.3406 17.6694 78.5636 17.7144 78.778C17.8494 79.2219 18.3994 79.3762 18.8673 79.3907C19.6094 79.413 20.3475 79.2739 21.0305 78.983C21.7136 78.6921 22.3253 78.2564 22.8235 77.706C23.3217 77.1555 23.6944 76.5034 23.9159 75.7948C24.1373 75.0862 24.2023 74.338 24.1063 73.6018C24.0887 73.1649 23.8998 72.7524 23.5805 72.4536C23.2428 72.1931 22.6446 72.2366 23.0305 72.3234Z" fill="#FEB223" fill-opacity="0.26"/>
<path d="M51.7992 57.0342L50.5541 60.7781C50.295 61.4205 49.7561 61.6241 48.9774 61.2838C48.3202 60.9983 47.6642 60.4314 47.7618 59.8492C47.7926 59.6922 47.868 59.5474 47.979 59.4321L50.3409 56.2717C50.4588 56.1118 50.6301 55.9993 50.8238 55.9546C51.0174 55.9099 51.2207 55.936 51.3968 56.028C51.5729 56.1201 51.7103 56.2722 51.7841 56.4567C51.8579 56.6412 51.8633 56.8461 51.7992 57.0342V57.0342Z" fill="url(#paint0_linear_1_1811)"/>
<path d="M48.9683 59.7633C48.3912 59.7611 47.9216 60.2271 47.9194 60.8042C47.9172 61.3813 48.3833 61.8509 48.9604 61.8531C49.5375 61.8553 50.0071 61.3893 50.0093 60.8122C50.0115 60.2351 49.5454 59.7655 48.9683 59.7633Z" fill="url(#paint1_radial_1_1811)"/>
<path d="M24.7913 32.2183C24.6699 32.0221 24.5745 31.811 24.5073 31.5903C24.4696 30.2855 24.5645 28.9803 24.7904 27.6946C24.9414 26.935 26.0133 25.0318 26.3589 25.0233C26.4905 25.0238 26.0148 25.4893 25.79 26.6338C25.6758 27.4958 25.6383 28.3663 25.6781 29.235C25.7999 29.8296 25.8795 30.432 25.9164 31.0378C25.7942 31.3784 25.6317 31.7032 25.4322 32.0052L24.7913 32.2183Z" fill="url(#paint2_linear_1_1811)"/>
<path d="M24.1871 31.8375L24.1872 31.8063C24.1881 31.7469 24.208 31.6893 24.2438 31.6419L24.4288 31.4583L24.4518 31.4584C24.5177 31.4455 24.5819 31.449 24.5984 31.4162C24.615 31.3833 24.6167 31.385 24.6184 31.3686C24.6201 31.3521 24.6349 31.3538 24.6497 31.3555C24.8865 31.2158 25.1562 31.1414 25.4312 31.1402C25.7062 31.1389 25.9765 31.2107 26.2146 31.3483C26.2311 31.3484 26.2311 31.3484 26.2458 31.3649L26.6752 31.8371C27.2257 32.458 27.9596 33.323 28.4203 33.7888C29.0359 34.3585 29.6161 34.9652 30.1577 35.6056C30.2947 35.9275 30.3817 36.2686 30.4155 36.6169L28.392 36.4743C27.9889 36.3557 27.5969 36.2023 27.2204 36.0157C26.2941 35.1846 25.4855 34.2309 24.8172 33.1811C24.7772 33.1347 24.7421 33.0844 24.7124 33.0309C24.6372 32.9138 24.516 32.7471 24.4113 32.5822C24.3802 32.5475 24.3638 32.531 24.3656 32.4997C24.261 32.2937 24.2002 32.0682 24.1871 31.8375V31.8375Z" fill="url(#paint3_linear_1_1811)"/>
<path d="M34.5895 39.4286C33.9425 39.4634 33.295 39.3715 32.6833 39.1581C31.3056 38.6185 29.9824 37.949 28.7317 37.1585C28.4755 37.0045 28.1365 36.5835 28.17 36.4306C28.2135 36.235 28.2865 36.0855 28.4199 36.0548C28.5978 36.0126 28.9679 36.0568 29.1473 36.0361C29.6972 35.9576 30.1046 35.7107 30.3547 35.7297C30.657 35.7867 30.9493 35.8876 31.2224 36.0292C31.8285 36.3244 32.8633 37.2466 33.4877 37.4843C33.7245 37.5408 33.9654 37.578 34.2081 37.5956L34.7799 38.6855L34.5895 39.4286Z" fill="url(#paint4_linear_1_1811)"/>
<path d="M45.3239 38.4394C43.2604 38.8659 39.1973 39.3425 35.1063 39.8206C34.6694 39.9114 34.2167 39.8905 33.7901 39.7596C33.5997 39.6451 33.4386 39.4879 33.3195 39.3004C33.5401 39.4079 33.7929 39.4294 34.0285 39.3607C34.1464 38.9726 34.1843 38.5646 34.1401 38.1615C34.0722 37.8321 33.705 37.4703 33.8139 37.3802C34.6347 37.1695 35.475 37.0437 36.3215 37.0047C38.2214 36.7651 40.6368 36.4156 41.8549 36.3067C43.7252 36.1747 45.6013 36.1434 47.4749 36.2129C48.2347 36.3227 47.6368 36.9112 46.7257 37.64C46.7687 37.9956 46.1552 37.9209 45.9011 38.1108C45.7392 38.2668 45.5407 38.3798 45.3239 38.4394V38.4394Z" fill="url(#paint5_linear_1_1811)"/>
<path d="M32.1551 24.4612C32.0949 24.2384 32.0637 24.0087 32.0623 23.7779C32.4006 22.5172 32.8656 21.2939 33.4502 20.1268C33.8148 19.4436 35.3855 17.9274 35.7192 18.0176C35.8475 18.0526 35.2571 18.3663 34.7135 19.3977C34.3553 20.1923 34.0685 21.0172 33.8566 21.8627C33.8039 22.4675 33.7075 23.0677 33.5684 23.6586C33.3532 23.95 33.1042 24.2147 32.8265 24.4473L32.1551 24.4612Z" fill="url(#paint6_linear_1_1811)"/>
<path d="M31.6848 23.9229L31.6965 23.8934C31.7144 23.8386 31.7491 23.791 31.7957 23.7572L32.0266 23.633L32.0414 23.633C32.1072 23.6333 32.168 23.6598 32.1944 23.6336C32.2208 23.6074 32.2208 23.609 32.2258 23.5926C32.2308 23.5762 32.2456 23.5828 32.2604 23.5927C32.5273 23.5274 32.8067 23.5338 33.0703 23.6114C33.3339 23.689 33.5722 23.835 33.7611 24.0345C33.7759 24.0346 33.7759 24.0346 33.7857 24.0609L34.0616 24.6363C34.4125 25.3896 34.8694 26.4199 35.1749 27.0052C35.6012 27.7293 35.983 28.4787 36.3182 29.2492C36.3569 29.5971 36.3422 29.9488 36.2748 30.2923L34.3769 29.5742C34.0271 29.345 33.6977 29.0861 33.3925 28.8003C32.7462 27.7376 32.2473 26.592 31.9096 25.3949C31.8848 25.342 31.8651 25.2869 31.851 25.2301C31.812 25.0967 31.7436 24.9006 31.6884 24.7128C31.6688 24.6716 31.659 24.6518 31.669 24.6206C31.6248 24.3896 31.6302 24.1517 31.6848 23.9229V23.9229Z" fill="url(#paint7_linear_1_1811)"/>
<path d="M39.4738 34.1798C38.8443 34.0256 38.2504 33.7518 37.7243 33.3734C36.5599 32.4608 35.4849 31.4396 34.5139 30.3234C34.3107 30.1021 34.1069 29.6028 34.1881 29.4665C34.2858 29.2908 34.3998 29.1678 34.5364 29.1766C34.7173 29.1888 35.0574 29.3431 35.2383 29.3685C35.786 29.4512 36.2455 29.3361 36.4822 29.4209C36.7554 29.5622 37.0064 29.7428 37.2272 29.9569C37.7191 30.413 38.4453 31.5907 38.9802 32.0008C39.1906 32.1225 39.4103 32.2273 39.6372 32.3143L39.8729 33.5214L39.4738 34.1798Z" fill="url(#paint8_linear_1_1811)"/>
<path d="M50.0483 36.3115C47.9492 36.1275 43.9203 35.421 39.8634 34.7045C39.4209 34.6665 38.9952 34.5171 38.6259 34.2703C38.4732 34.1069 38.3612 33.9097 38.299 33.6948C38.4779 33.8607 38.7123 33.9538 38.9562 33.9556C39.1809 33.6178 39.3341 33.2376 39.4064 32.8384C39.439 32.5094 39.1889 32.0526 39.3257 31.9988C40.1724 32.0331 41.0133 32.1538 41.8355 32.3589C43.725 32.6738 46.1377 33.0335 47.3364 33.2767C49.166 33.687 50.9724 34.1948 52.7478 34.798C53.4443 35.1298 52.6974 35.512 51.6212 35.9456C51.5606 36.2992 50.9921 36.0518 50.6972 36.161C50.4967 36.2643 50.2737 36.316 50.0483 36.3115V36.3115Z" fill="url(#paint9_linear_1_1811)"/>
<path d="M21.7035 61.802C21.2081 61.1699 20.9623 60.3778 21.0126 59.5762C21.0921 58.3909 21.3137 57.2194 21.6726 56.0869L22.8619 56.1951C22.2863 57.3125 21.8644 58.5027 21.6077 59.7332C21.5076 60.4226 21.5401 61.1248 21.7035 61.802V61.802Z" fill="url(#paint10_linear_1_1811)"/>
<path d="M17.5931 35.798C17.5275 36.5877 17.5878 37.3827 17.7717 38.1535C18.2209 39.0921 18.7418 39.9946 19.3297 40.8532L18.9642 42.2012L18.3308 42.1609C17.654 41.1433 17.209 39.9894 17.0272 38.7809C16.9609 37.7548 17.1556 36.7285 17.5931 35.798V35.798Z" fill="url(#paint11_linear_1_1811)"/>
<path d="M25.9602 44.1728C25.1795 44.4033 24.3502 44.4132 23.5641 44.2016C22.4594 43.9209 21.3301 43.1843 19.9266 42.687C19.3548 42.484 18.9633 42.4266 18.8372 42.2615C18.7112 42.0965 18.6095 42.0007 18.656 41.8923C18.7158 41.7559 18.9207 41.5082 18.923 41.3585C18.9234 41.2416 18.6856 41.0433 18.7255 40.9332C18.8436 40.593 20.097 40.7376 20.4288 40.8903C20.7179 41.0214 20.969 41.2083 21.3369 41.3874C22.6509 41.9341 24.0255 42.3217 25.4316 42.5417C26.2224 42.7274 26.8133 42.6918 27.4051 42.8553L25.9602 44.1728Z" fill="url(#paint12_linear_1_1811)"/>
<path d="M33.173 43.6622C31.0442 44.2541 28.8781 44.7027 26.6893 45.005C25.9563 45.0005 25.2308 44.8565 24.5517 44.5805C24.4632 44.4765 24.4917 44.3548 24.581 44.2235C25.1471 43.5358 25.8233 42.9467 26.5821 42.4803C28.4713 42.3524 30.352 42.1211 32.2159 41.7875L33.173 43.6622Z" fill="url(#paint13_linear_1_1811)"/>
<path d="M31.4797 44.082C31.5285 44.2336 31.8604 44.3582 32.3727 44.2318C32.7564 44.1378 33.3619 43.7321 33.7063 43.6182C34.8596 43.2391 37.5354 42.7754 41.1842 41.751L41.3744 39.7655C38.0021 39.9172 36.6207 40.9931 33.2769 41.4098C32.4669 41.5121 31.9453 41.5002 31.7822 41.5687C31.4212 41.7187 31.0982 41.8475 31.0152 42.0397C31.2762 41.9506 31.5605 41.9581 31.8165 42.0609C32.0771 42.1969 32.2824 42.4191 32.3975 42.6896C32.5126 42.9601 32.5304 43.2622 32.4477 43.5443C32.3429 43.8269 31.9507 43.9735 31.4797 44.082Z" fill="url(#paint14_linear_1_1811)"/>
<path d="M25.4661 50.7746C24.5198 52.2998 23.7501 53.9277 23.1718 55.6269C23.0783 56.1026 22.9198 56.5633 22.7009 56.9958C22.3722 57.0984 22.02 57.0971 21.6921 56.992C21.4901 56.8843 21.364 56.739 21.4093 56.4973C21.55 55.6036 21.8147 54.7339 22.1959 53.9134C22.5375 52.9558 22.9824 52.0382 23.5228 51.177L25.4661 50.7746Z" fill="url(#paint15_linear_1_1811)"/>
<path d="M23.7784 52.3199C23.338 52.5766 23.0801 52.472 23.0035 52.2643C23.0298 51.8683 23.1366 51.4818 23.3172 51.1284C24.4637 49.2893 25.9537 47.6881 27.7058 46.4125L28.9729 46.8304L28.6569 48.1456C27.7332 48.638 26.9406 49.3442 26.3453 50.2053C26.0527 50.553 25.706 50.8446 25.41 51.2351L23.7784 52.3199Z" fill="url(#paint16_linear_1_1811)"/>
<path d="M37.3959 46.1516C34.3355 45.9277 31.2838 46.6894 28.6875 48.3251C28.5084 48.3838 28.315 48.3831 28.1363 48.323C28.2364 48.1651 28.3032 47.9884 28.3324 47.8038C28.3748 47.6086 28.354 47.4051 28.273 47.2226C28.1921 47.04 28.0552 46.888 27.8821 46.7884C27.7861 46.7136 27.6647 46.679 27.5437 46.6921C27.4226 46.7051 27.3114 46.7648 27.2335 46.8583C27.2382 46.7622 27.264 46.6682 27.3089 46.5831C27.3539 46.498 27.417 46.4237 27.4937 46.3656C30.6485 45.1156 33.9443 44.2562 37.3078 43.8063L37.3959 46.1516Z" fill="url(#paint17_linear_1_1811)"/>
<path d="M43.3344 74.7593C44.6473 75.1652 45.9048 75.7321 47.0783 76.447C47.4787 76.7152 47.8577 77.0194 48.2748 77.2612C49.0612 77.6569 49.8776 77.9902 50.7163 78.2578C51.1784 78.3945 51.5823 78.6801 51.8651 79.0702C51.9298 79.1578 51.9655 79.2634 51.9672 79.3723C51.9688 79.4812 51.9363 79.5879 51.8743 79.6774C51.7927 79.7374 51.6985 79.7778 51.5988 79.7954C51.4991 79.813 51.3967 79.8073 51.2996 79.7789C49.6585 79.5703 48.0494 79.1596 46.5091 78.5561C44.9644 77.9493 43.5822 76.9914 42.4716 75.7581C42.2701 75.527 42.0706 75.2136 42.1967 74.9343C42.3726 74.5417 42.9351 74.6195 43.3344 74.7593Z" fill="url(#paint18_linear_1_1811)"/>
<path d="M41.5422 77.8313C41.8301 78.1516 42.1524 78.4392 42.5033 78.689C42.7724 78.8677 43.0698 79.0005 43.339 79.176C43.6201 79.3723 43.886 79.5895 44.1346 79.8257C44.9767 80.6427 45.9441 81.3197 47.0001 81.831C48.0709 82.3435 49.2997 82.4167 50.4238 82.035C50.8151 81.9038 51.1518 81.6463 51.381 81.303C51.0642 81.5182 50.6913 81.6358 50.3084 81.6412C49.3558 81.7116 48.399 81.5797 47.5009 81.2541C46.6028 80.9285 45.7838 80.4166 45.0976 79.752C44.9114 79.5854 44.7557 79.3877 44.6374 79.1677C44.5384 78.9143 44.4964 78.6421 44.5145 78.3705C44.5326 78.099 44.6103 77.8348 44.7421 77.5966C45.0098 77.1242 45.3055 76.6681 45.6277 76.2309C45.6595 76.1896 45.6786 76.1399 45.6825 76.0879C45.6772 76.0411 45.6591 75.9967 45.6303 75.9594C45.0677 75.0886 44.3134 74.358 43.4252 73.8233C43.215 73.6683 42.9751 73.5586 42.7204 73.501C42.4657 73.4434 42.2019 73.4391 41.9455 73.4885C41.4332 73.7324 41.0357 74.1657 40.8367 74.6971L40.3692 75.5872C40.2753 75.742 40.2183 75.9163 40.2028 76.0967C40.239 76.4096 40.3977 76.6953 40.644 76.8915L41.5422 77.8313Z" fill="url(#paint19_linear_1_1811)"/>
<path d="M50.6096 81.6276C50.9498 81.4792 51.2647 81.2789 51.5433 81.0338C51.5293 81.3747 51.3814 81.6964 51.1318 81.929C50.4493 82.6188 49.5776 83.0907 48.627 83.2853C47.4438 83.5646 46.2129 83.5741 45.0255 83.3132C43.8381 83.0523 42.7246 82.5277 41.7675 81.7782C41.3622 81.4574 40.9901 81.0973 40.6195 80.7404L39.3931 79.5575C38.8378 79.0907 38.3841 78.5149 38.0601 77.8657C38.7884 76.939 39.6197 76.098 40.538 75.3591C42.0322 77.1831 43.7049 78.8532 45.5314 80.3444C46.0858 80.8074 46.7274 81.1545 47.4182 81.3653C47.6846 81.4321 47.9609 81.4644 48.2405 81.5116C49.0067 81.7556 49.8233 81.7956 50.6096 81.6276V81.6276Z" fill="url(#paint20_radial_1_1811)"/>
<path d="M42.8708 74.2243C42.7811 73.9814 42.6191 73.7719 42.4067 73.6239C42.1942 73.476 41.9414 73.3968 41.6825 73.397C41.4468 71.6409 41.2467 69.8782 41.0823 68.1092C41.2721 67.9651 41.5197 68.1915 41.6555 68.3878C43.4246 70.9468 46.1826 72.6835 48.026 75.1819C48.398 75.7592 48.8282 76.2968 49.31 76.7863C50.13 77.5233 51.3265 77.9031 51.8395 78.8825L48.1544 77.7429C47.0049 77.5293 45.9712 76.9077 45.2435 75.9925C45.152 75.8077 45.0359 75.6362 44.8983 75.4827C44.3948 75.0167 43.4031 75.3124 43.0482 74.7302C42.9717 74.5682 42.9123 74.3986 42.8708 74.2243V74.2243Z" fill="url(#paint21_linear_1_1811)"/>
<path d="M35.179 76.9234C34.1467 75.9103 33.2019 74.8118 32.3546 73.6396C32.033 73.1979 31.7338 72.7404 31.458 72.2687C30.6554 70.9266 30.2081 69.4019 30.1584 67.8389C30.1181 66.2678 30.6398 64.734 31.6296 63.5133C31.9034 63.1313 32.2704 62.8257 32.6958 62.6257C33.1211 62.4257 33.5906 62.3379 34.0595 62.3707C34.5571 62.4974 35.0205 62.733 35.4161 63.0604C36.729 64.0034 38.0115 64.9857 39.2637 66.0075C40.0936 66.6376 40.8376 67.3734 41.4769 68.1963C42.1185 69.0287 42.4461 70.0607 42.4021 71.1108C42.2675 71.6402 42.2654 72.1946 42.396 72.7251C42.5592 73.0877 42.9085 73.3852 42.8741 73.785C42.7686 73.7358 42.6535 73.7103 42.5371 73.7103C42.4207 73.7102 42.3056 73.7357 42.2001 73.7848C42.0945 73.834 42.001 73.9056 41.9261 73.9948C41.8511 74.0839 41.7966 74.1883 41.7663 74.3007C41.7562 74.398 41.736 74.4938 41.706 74.5868C41.5732 74.8825 41.1537 74.8661 40.8635 75.0131C40.7597 75.0759 40.6724 75.1625 40.6087 75.2657C40.5451 75.369 40.507 75.4859 40.4975 75.6068C40.488 75.7277 40.5075 75.8492 40.5543 75.961C40.6011 76.0729 40.6739 76.1721 40.7666 76.2502L38.647 78.8751C38.5471 79.026 38.4062 79.1453 38.2409 79.2191C37.8422 79.3525 37.457 78.9364 37.0374 78.9364C36.6771 78.4792 35.8282 77.561 35.179 76.9234Z" fill="url(#paint22_linear_1_1811)"/>
<path d="M32.9128 66.6168C32.1869 67.3078 31.2463 67.7294 30.2474 67.8112C30.096 67.8279 29.9429 67.8005 29.8067 67.7322C29.6878 67.6466 29.5917 67.5332 29.5266 67.402C28.5775 65.9746 27.8753 64.3976 27.4495 62.7372C27.2438 61.9042 27.2389 61.0343 27.4352 60.1991C27.6315 59.3639 28.0234 58.5873 28.5786 57.9331C28.8232 57.6909 29.0823 57.4638 29.3546 57.2532L30.5232 56.3164L31.9739 57.3619C32.5455 57.7214 33.0435 58.1862 33.4415 58.7316C33.6377 59.007 33.7529 59.3318 33.774 59.6692C33.7951 60.0067 33.7213 60.3433 33.5609 60.641C33.5078 60.7057 33.4729 60.7833 33.4597 60.866C33.4646 60.9373 33.4882 61.0061 33.528 61.0654C34.2681 62.5683 34.8012 64.1646 35.1127 65.8106C35.1538 65.9166 35.1719 66.03 35.1658 66.1435C35.1597 66.257 35.1295 66.3678 35.0773 66.4687C34.889 66.3158 34.6721 66.2019 34.4392 66.1338C34.2064 66.0656 33.9623 66.0446 33.7212 66.0719C33.4128 66.1878 33.1359 66.3744 32.9128 66.6168V66.6168Z" fill="url(#paint23_linear_1_1811)"/>
<path d="M34.2499 60.3424C33.9435 60.3248 33.6512 60.2082 33.4168 60.0102C33.2744 59.8154 33.4938 59.2453 33.3563 59.0473C33.1926 58.8179 32.5775 58.7267 32.3312 58.5941C31.661 58.2348 31.019 57.8253 30.4106 57.3691C30.1416 57.1426 29.7556 56.506 29.4518 56.3386C29.3664 56.2922 29.0782 56.3701 29.0687 56.273C28.9448 55.1009 31.124 52.8004 31.7793 51.8567C32.47 50.9615 33.3217 50.203 34.2907 49.6201C35.5016 49.1467 36.7469 48.7664 38.0156 48.4824L42.6166 53.2474C42.6166 53.2474 38.8827 56.73 37.6621 57.9134C37.0374 58.655 36.3475 59.3391 35.6007 59.9576C35.1832 60.1811 34.7225 60.3123 34.2499 60.3424Z" fill="url(#paint24_radial_1_1811)"/>
<path d="M60.0634 56.9916L61.28 60.7448C61.5342 61.3892 62.0715 61.597 62.8528 61.2626C63.5121 60.9821 64.1725 60.4202 64.0792 59.8373C64.0496 59.68 63.9754 59.5346 63.8653 59.4185L61.5275 56.2402C61.4108 56.0794 61.2403 55.9656 61.047 55.9195C60.8537 55.8733 60.6503 55.8978 60.4735 55.9885C60.2967 56.0793 60.1581 56.2303 60.0829 56.4142C60.0077 56.5982 60.0008 56.803 60.0634 56.9916Z" fill="url(#paint25_linear_1_1811)"/>
<path d="M62.8816 59.7422C62.3045 59.74 61.8349 60.2061 61.8327 60.7831C61.8305 61.3602 62.2966 61.8298 62.8737 61.832C63.4508 61.8342 63.9204 61.3682 63.9226 60.7911C63.9248 60.214 63.4587 59.7444 62.8816 59.7422Z" fill="url(#paint26_radial_1_1811)"/>
<path d="M87.2677 32.3805C87.3916 32.1857 87.4887 31.9752 87.5564 31.7546C87.604 30.4507 87.5191 29.1453 87.303 27.8586C87.1578 27.0978 86.1004 25.1866 85.7549 25.1754C85.6233 25.1749 86.0954 25.644 86.3115 26.7901C86.4197 27.6557 86.4505 28.5293 86.4036 29.4003C86.2769 29.9967 86.1926 30.6012 86.1516 31.2095C86.2722 31.5506 86.4322 31.8765 86.6284 32.1806L87.2677 32.3805Z" fill="url(#paint27_linear_1_1811)"/>
<path d="M87.8748 32.0059L87.8749 31.9747C87.8748 31.9152 87.8554 31.8574 87.8196 31.8099L87.636 31.6232L87.6195 31.6232C87.5538 31.6098 87.4896 31.6112 87.4732 31.5798C87.4569 31.5485 87.4553 31.5485 87.4553 31.532C87.4554 31.5156 87.4373 31.5172 87.4225 31.5171C87.1864 31.3764 86.9174 31.3005 86.6426 31.2971C86.3678 31.2938 86.097 31.3631 85.8576 31.498C85.8428 31.4979 85.8428 31.4979 85.8263 31.516L85.3934 31.985C84.8381 32.6016 84.0976 33.4528 83.6335 33.9217C83.0145 34.487 82.4303 35.0893 81.8839 35.7251C81.7433 36.0458 81.6532 36.3863 81.6168 36.7345L83.6413 36.6056C84.0451 36.4901 84.4382 36.3402 84.8163 36.1576C85.7455 35.3363 86.5589 34.3928 87.2345 33.3528C87.2748 33.3068 87.3103 33.2568 87.3404 33.2035C87.4165 33.087 87.5389 32.9212 87.6465 32.7571C87.6762 32.7226 87.6927 32.7062 87.6912 32.6733C87.7987 32.4663 87.8613 32.2388 87.8748 32.0059Z" fill="url(#paint28_linear_1_1811)"/>
<path d="M77.4083 39.5176C78.0549 39.5564 78.7029 39.4695 79.3164 39.2615C80.6982 38.7325 82.0265 38.073 83.2832 37.2921C83.5405 37.14 83.8843 36.7217 83.8504 36.5685C83.8083 36.3726 83.7365 36.2225 83.6033 36.1908C83.4258 36.1473 83.0554 36.1887 82.8761 36.1666C82.3268 36.0839 81.9213 35.8339 81.6711 35.851C81.3684 35.9057 81.0753 36.0044 80.8011 36.1439C80.1944 36.4345 79.1509 37.3488 78.5247 37.5817C78.2876 37.6364 78.0464 37.6718 77.8036 37.6876L77.2235 38.7731L77.4083 39.5176Z" fill="url(#paint29_linear_1_1811)"/>
<path d="M66.6801 38.4417C68.7403 38.884 72.7996 39.3914 76.8869 39.9007C77.3231 39.9948 77.776 39.9773 78.2036 39.8497C78.3948 39.7367 78.5571 39.5807 78.6776 39.3941C78.4558 39.4985 78.2034 39.5181 77.9681 39.449C77.8531 39.06 77.8188 38.6516 77.8674 38.249C77.9361 37.9201 78.3061 37.5611 78.1995 37.4702C77.3803 37.2532 76.541 37.121 75.6948 37.0756C73.7968 36.8216 71.3841 36.4536 70.1669 36.3355C68.2976 36.1892 66.4219 36.1436 64.5478 36.1989C63.7871 36.303 64.3806 36.896 65.2861 37.6317C65.2403 37.987 65.856 37.9169 66.1071 38.1087C66.2674 38.2657 66.4643 38.3802 66.6801 38.4417V38.4417Z" fill="url(#paint30_linear_1_1811)"/>
<path d="M79.9632 24.5691C80.0251 24.3462 80.0581 24.1163 80.0612 23.8849C79.7322 22.6223 79.2765 21.3961 78.7011 20.225C78.3433 19.5391 76.7826 18.011 76.4482 18.0986C76.3197 18.1326 76.9076 18.4492 77.445 19.4846C77.7963 20.2821 78.0762 21.1092 78.2815 21.9562C78.3296 22.5613 78.4214 23.1622 78.556 23.7542C78.7689 24.0472 79.016 24.3138 79.2918 24.5485L79.9632 24.5691Z" fill="url(#paint31_linear_1_1811)"/>
<path d="M80.4292 24.0344L80.4178 24.0048C80.4009 23.9497 80.3664 23.9016 80.3196 23.8678L80.0897 23.7419L80.0749 23.7418C80.0091 23.7416 79.9481 23.7677 79.9219 23.7413C79.8956 23.7148 79.8973 23.7148 79.8908 23.7C79.8842 23.6852 79.8711 23.69 79.8562 23.6999C79.5898 23.6325 79.3104 23.6368 79.0462 23.7124C78.782 23.788 78.5426 23.9321 78.3522 24.1302C78.3374 24.1302 78.3374 24.1302 78.3274 24.1565L78.0471 24.728C77.6904 25.4803 77.2176 26.507 76.9158 27.0901C76.4834 27.8105 76.0958 28.557 75.7554 29.3252C75.7129 29.6727 75.7243 30.0247 75.7893 30.3687L77.6926 29.665C78.0441 29.4385 78.3755 29.1821 78.6829 28.8987C79.3372 27.8409 79.8448 26.6991 80.1916 25.5047C80.2169 25.452 80.2369 25.3969 80.2515 25.3404C80.2915 25.2072 80.3613 25.0117 80.418 24.8243C80.4379 24.7832 80.4479 24.7619 80.4381 24.7322C80.4847 24.5016 80.4817 24.2638 80.4292 24.0344V24.0344Z" fill="url(#paint32_linear_1_1811)"/>
<path d="M72.5708 34.2301C73.2016 34.0823 73.7978 33.8135 74.3263 33.4386C75.4976 32.5367 76.5808 31.5259 77.5615 30.4198C77.7647 30.2001 77.9723 29.7023 77.8938 29.5654C77.7974 29.389 77.6844 29.2651 77.5477 29.2728C77.3667 29.2837 77.0255 29.4354 76.8444 29.4594C76.2961 29.5379 75.8374 29.4194 75.6002 29.5024C75.3259 29.6416 75.0735 29.8202 74.8511 30.0327C74.3557 30.4833 73.6206 31.6571 73.0826 32.0632C72.8714 32.1835 72.6509 32.2867 72.4232 32.3717L72.18 33.5769L72.5708 34.2301Z" fill="url(#paint33_linear_1_1811)"/>
<path d="M61.9803 36.2846C64.0807 36.1165 68.1149 35.4407 72.1771 34.7552C72.6199 34.7205 73.0467 34.5744 73.4178 34.3304C73.5718 34.1681 73.6853 33.9718 73.7491 33.7574C73.5685 33.9211 73.3337 34.0122 73.0899 34.0132C72.8679 33.6736 72.7176 33.2923 72.6483 32.8925C72.6199 32.5633 72.8718 32.1085 72.7354 32.0536C71.8885 32.0815 71.0466 32.1957 70.2229 32.3946C68.3327 32.6951 65.9157 33.0364 64.7152 33.2704C62.8823 33.6661 61.0721 34.1601 59.2924 34.7505C58.5934 35.077 59.3374 35.4649 60.4102 35.9067C60.4681 36.2607 61.0384 36.016 61.3326 36.1291C61.5322 36.2339 61.7548 36.2873 61.9803 36.2846V36.2846Z" fill="url(#paint34_linear_1_1811)"/>
<path d="M90.1335 61.9885C90.6351 61.3583 90.8871 60.5655 90.8413 59.7614C90.7708 58.5755 90.5582 57.4023 90.2079 56.2671L89.0178 56.3663C89.5857 57.4912 89.9985 58.6879 90.245 59.9237C90.3394 60.6128 90.3015 61.3135 90.1335 61.9885Z" fill="url(#paint35_linear_1_1811)"/>
<path d="M94.4384 36.0165C94.4989 36.8066 94.4326 37.6013 94.2419 38.3705C93.7855 39.3057 93.2578 40.2042 92.6634 41.0583L93.0186 42.409L93.6523 42.3736C94.3339 41.3604 94.7849 40.21 94.9734 39.0036C95.05 37.9787 94.866 36.951 94.4384 36.0165V36.0165Z" fill="url(#paint36_linear_1_1811)"/>
<path d="M86.0078 44.3274C86.7873 44.5621 87.6164 44.5766 88.4036 44.3694C89.5105 44.0972 90.6454 43.3709 92.0525 42.8842C92.6259 42.6856 93.0178 42.6312 93.1451 42.4655C93.2725 42.2997 93.3749 42.208 93.3292 42.0992C93.2705 41.9624 93.0674 41.7131 93.0663 41.5634C93.0667 41.4465 93.3061 41.25 93.2687 41.138C93.1515 40.7985 91.8971 40.9336 91.5641 41.0821C91.274 41.2126 91.0215 41.3976 90.6539 41.5723C89.3356 42.1086 87.9581 42.4856 86.5505 42.6954C85.7566 42.875 85.166 42.8349 84.5747 42.994L86.0078 44.3274Z" fill="url(#paint37_linear_1_1811)"/>
<path d="M78.7991 43.7536C80.9238 44.3601 83.0863 44.8252 85.2724 45.1457C86.0055 45.1472 86.7321 45.0086 87.4132 44.7376C87.5041 44.6342 87.475 44.5123 87.3866 44.3804C86.8228 43.6902 86.1489 43.0977 85.3923 42.6268C83.5042 42.4849 81.6253 42.2399 79.7639 41.8929L78.7991 43.7536Z" fill="url(#paint38_linear_1_1811)"/>
<path d="M80.4842 44.1944C80.4359 44.3457 80.1014 44.4678 79.5901 44.3375C79.2071 44.2406 78.6047 43.8302 78.2612 43.7121C77.1108 43.3259 74.4386 42.8418 70.7977 41.7896L70.6226 39.8011C73.9937 39.9785 75.3669 41.0665 78.7073 41.5087C79.5165 41.6171 80.0382 41.6092 80.2008 41.6789C80.5606 41.8317 80.8827 41.9629 80.9659 42.1558C80.705 42.0643 80.42 42.0696 80.1628 42.1708C79.9009 42.3046 79.6937 42.5253 79.5765 42.795C79.4593 43.0646 79.4395 43.3667 79.5203 43.6494C79.6278 43.9328 80.0238 44.0874 80.4842 44.1944Z" fill="url(#paint39_linear_1_1811)"/>
<path d="M86.4517 50.9311C87.3836 52.4649 88.1381 54.0997 88.7007 55.8039C88.7909 56.2803 88.9458 56.7421 89.1612 57.1765C89.489 57.2816 89.8413 57.2829 90.1699 57.1803C90.2698 57.1477 90.3543 57.0795 90.4071 56.9887C90.46 56.8978 90.4775 56.7907 90.4565 56.6877C90.3239 55.7938 90.0675 54.9228 89.6946 54.0996C89.3598 53.1417 88.9219 52.223 88.3885 51.3597L86.4517 50.9311Z" fill="url(#paint40_linear_1_1811)"/>
<path d="M88.1275 52.4892C88.5659 52.7509 88.8246 52.6482 88.9027 52.4412C88.8794 52.045 88.7757 51.6577 88.5977 51.3029C87.4654 49.4545 85.9876 47.8415 84.2452 46.5521L82.9765 46.9619L83.2809 48.2795C84.2006 48.78 84.9877 49.4927 85.5767 50.3584C85.8667 50.7083 86.2111 51.0026 86.5042 51.3953L88.1275 52.4892Z" fill="url(#paint41_linear_1_1811)"/>
<path d="M74.5525 46.2173C77.6146 46.0179 80.6603 46.8033 83.2441 48.4588C83.4228 48.5188 83.6161 48.5195 83.7953 48.4609C83.6964 48.3022 83.631 48.125 83.6031 47.9401C83.5623 47.7447 83.5846 47.5413 83.6669 47.3594C83.7493 47.1775 83.8873 47.0265 84.0611 46.9282C84.1586 46.8515 84.2823 46.8163 84.4055 46.8304C84.5287 46.8444 84.6414 46.9065 84.7191 47.0031C84.7149 46.9068 84.6896 46.8126 84.645 46.7271C84.6004 46.6416 84.5376 46.567 84.461 46.5085C81.3159 45.2342 78.0267 44.3497 74.6667 43.8745L74.5525 46.2173Z" fill="url(#paint42_linear_1_1811)"/>
<path d="M68.4012 74.7806C67.085 75.1786 65.8232 75.7381 64.6446 76.4464C64.2421 76.7115 63.8608 77.0112 63.4419 77.2515C62.6522 77.6405 61.8334 77.9675 60.9929 78.2295C60.53 78.363 60.1241 78.6455 59.838 79.0331C59.7726 79.1202 59.7361 79.2255 59.7336 79.3344C59.7311 79.4433 59.7628 79.5503 59.8241 79.6402C59.9052 79.7008 59.9992 79.7419 60.0987 79.7602C60.1982 79.7786 60.3007 79.7738 60.398 79.7461C62.0406 79.5492 63.6526 79.1508 65.1977 78.5598C66.7469 77.9648 68.1365 77.0174 69.2563 75.7926C69.4596 75.563 69.6616 75.2511 69.5376 74.9709C69.3647 74.5704 68.8016 74.6439 68.4012 74.7806Z" fill="url(#paint43_linear_1_1811)"/>
<path d="M70.1699 77.8662C69.8772 78.1844 69.5506 78.4695 69.1958 78.7166C68.9236 78.8916 68.6269 79.0238 68.3547 79.1972C68.0718 79.3909 67.8041 79.606 67.5542 79.8408C66.7062 80.6517 65.7336 81.3214 64.6735 81.8243C63.6006 82.3265 62.3742 82.3903 61.255 82.0021C60.8642 81.868 60.5289 81.608 60.3017 81.2629C60.6169 81.4803 60.9889 81.6007 61.3716 81.6093C62.3238 81.6872 63.2816 81.5627 64.1822 81.244C65.0828 80.9252 65.9057 80.4194 66.5968 79.7598C66.7825 79.5937 66.9381 79.3967 67.0565 79.1774C67.1574 78.9247 67.2014 78.6528 67.1854 78.3811C67.1693 78.1095 67.0937 77.8446 66.9637 77.6055C66.7004 77.13 66.4081 76.6711 66.0886 76.2314C66.0568 76.1907 66.038 76.1413 66.0348 76.0897C66.0419 76.0408 66.0633 75.9951 66.0962 75.9583C66.6655 75.0919 67.4253 74.367 68.3175 73.8391C68.5289 73.6857 68.7697 73.5778 69.0248 73.5221C69.2799 73.4665 69.5438 73.4642 69.7998 73.5156C70.3102 73.7631 70.7048 74.1987 70.901 74.7309L71.3616 75.6262C71.4558 75.7816 71.5142 75.9561 71.5324 76.137C71.4924 76.4495 71.3311 76.7337 71.0835 76.9284L70.1699 77.8662Z" fill="url(#paint44_linear_1_1811)"/>
<path d="M61.0739 81.5933C60.7357 81.441 60.4225 81.2384 60.1448 80.9925C60.1563 81.3335 60.3017 81.6563 60.5495 81.8908C61.2272 82.5852 62.095 83.0637 63.0439 83.2662C64.2249 83.5545 65.4557 83.5735 66.6451 83.3217C67.8344 83.0698 68.9519 82.5536 69.9147 81.8113C70.3224 81.4936 70.6973 81.1363 71.0705 80.7806L72.3059 79.6088C72.8644 79.1454 73.3229 78.5733 73.6534 77.9272C72.9318 76.9948 72.1069 76.1471 71.1947 75.4001C69.6876 77.214 68.002 78.872 66.1635 80.3489C65.6055 80.8076 64.9613 81.1498 64.2689 81.3554C64.002 81.4202 63.7271 81.4504 63.4456 81.4954C62.677 81.7339 61.8595 81.7676 61.0739 81.5933V81.5933Z" fill="url(#paint45_radial_1_1811)"/>
<path d="M68.869 74.2443C68.9605 74.0021 69.1241 73.7938 69.3377 73.6475C69.5513 73.5012 69.8046 73.4239 70.0635 73.4261C70.3126 71.6718 70.5267 69.9107 70.7057 68.143C70.5153 67.9975 70.266 68.2219 70.1287 68.4172C68.3401 70.9611 65.569 72.6784 63.7067 75.1626C63.3303 75.7371 62.896 76.2714 62.4105 76.7572C61.5849 77.488 60.3855 77.8586 59.8651 78.8341L63.5587 77.7226C64.7103 77.5178 65.7493 76.9041 66.4845 75.9944C66.5762 75.8091 66.6938 75.6378 66.8337 75.4856C67.339 75.0251 68.3284 75.3267 68.6894 74.7472C68.7661 74.5861 68.8263 74.4176 68.869 74.2443V74.2443Z" fill="url(#paint46_linear_1_1811)"/>
<path d="M76.5399 77.0068C77.5792 76.0013 78.5313 74.9094 79.386 73.743C79.7113 73.3046 80.014 72.8498 80.293 72.3806C81.1052 71.0443 81.564 69.5233 81.6263 67.9608C81.68 66.3899 81.1699 64.8516 80.1881 63.6242C79.9173 63.2399 79.5526 62.9314 79.1288 62.7282C78.7049 62.5249 78.2361 62.4336 77.7669 62.463C77.2685 62.5863 76.8034 62.8183 76.4051 63.1424C75.0851 64.0743 73.7951 65.0468 72.5352 66.0601C71.7001 66.6834 70.9505 67.4136 70.3054 68.232C69.6571 69.0592 69.3222 70.089 69.3596 71.1394C69.4894 71.6699 69.4873 72.2241 69.3535 72.7536C69.1876 73.115 68.8376 73.4099 68.8673 73.8099C68.9721 73.7637 69.0857 73.7407 69.2002 73.7423C69.3147 73.744 69.4275 73.7702 69.531 73.8193C69.6345 73.8684 69.7261 73.9392 69.7998 74.0269C69.8735 74.1146 69.9275 74.2171 69.958 74.3274C69.9679 74.4248 69.988 74.5208 70.0178 74.614C70.1467 74.9107 70.5663 74.8975 70.8554 75.045C70.9588 75.1087 71.0456 75.196 71.1086 75.2997C71.1716 75.4035 71.209 75.5208 71.2177 75.6419C71.2264 75.763 71.2062 75.8845 71.1586 75.9962C71.1111 76.1079 71.0377 76.2067 70.9445 76.2845L73.0423 78.9468C73.1411 79.0985 73.2811 79.2189 73.4458 79.2939C73.8435 79.4303 74.2318 79.0171 74.6514 79.0204C75.03 78.5479 75.8859 77.6411 76.5399 77.0068Z" fill="url(#paint47_linear_1_1811)"/>
<path d="M78.8846 66.7161C79.6052 67.4127 80.5426 67.8413 81.5408 67.9308C81.6927 67.9487 81.8465 67.9225 81.9838 67.8552C82.1023 67.7699 82.1987 67.6574 82.2647 67.5271C83.2243 66.1067 83.9384 64.5352 84.3772 62.8782C84.5893 62.0469 84.6008 61.177 84.4109 60.3403C84.2209 59.5037 83.835 58.7241 83.2848 58.0657C83.0424 57.8212 82.785 57.5922 82.514 57.3799L81.3525 56.4342L79.8956 57.4686C79.3181 57.8226 78.8136 58.2837 78.4094 58.8272C78.2111 59.101 78.0934 59.4249 78.0697 59.7622C78.046 60.0995 78.1173 60.4366 78.2754 60.7355C78.328 60.8006 78.3624 60.8786 78.3749 60.9613C78.3697 61.0321 78.3456 61.1002 78.3051 61.1585C77.5545 62.6568 77.0094 64.2493 76.6843 65.8932C76.6428 65.9989 76.6241 66.1122 76.6293 66.2256C76.6345 66.3391 76.6636 66.4501 76.7147 66.5516C76.9043 66.4001 77.122 66.2879 77.3553 66.2212C77.5886 66.1546 77.8328 66.135 78.0737 66.1634C78.3834 66.282 78.661 66.4713 78.8846 66.7161V66.7161Z" fill="url(#paint48_linear_1_1811)"/>
<path d="M77.5953 60.4334C77.9016 60.4173 78.1946 60.303 78.4309 60.1075C78.5748 59.9138 78.3597 59.342 78.4987 59.1451C78.6641 58.917 79.2799 58.8304 79.5272 58.6997C80.2002 58.3456 80.8453 57.9409 81.4572 57.4894C81.7295 57.265 82.1187 56.6313 82.4237 56.4662C82.5095 56.4205 82.7971 56.5006 82.809 56.4035C82.9402 55.2324 80.7785 52.9154 80.1305 51.9667C79.447 51.0659 78.601 50.3008 77.6362 49.7111C76.4289 49.2284 75.1865 48.8386 73.92 48.545L69.2829 53.2748C69.2829 53.2748 72.9901 56.7858 74.2017 57.9768C74.8223 58.7223 75.5081 59.411 76.2508 60.035C76.6653 60.2624 77.1238 60.3982 77.5953 60.4334V60.4334Z" fill="url(#paint49_radial_1_1811)"/>
<path d="M37.3411 42.8273C37.4679 42.3128 37.7885 41.8672 38.236 41.5834C39.4051 40.8168 40.6312 40.141 41.9035 39.5618C43.2749 38.9549 44.4067 37.753 45.5838 37.193C46.8268 36.6021 48.296 35.3685 49.8722 34.5847C50.6848 34.1512 51.587 33.9124 52.5077 33.8871L59.9867 33.9156C60.6144 33.9313 61.2349 34.0532 61.8218 34.2764C63.567 35.1831 65.2617 36.1838 66.8984 37.2742C68.0712 37.8431 69.1955 39.0535 70.5606 39.6709C71.9772 40.3266 73.3332 41.106 74.6129 42C74.9102 42.2077 75.153 42.484 75.3208 42.8054C75.4886 43.1269 75.5764 43.4841 75.5768 43.8467C75.5301 45.5966 75.1318 47.3193 74.4056 48.9122C72.1802 53.8305 67.1396 55.6149 64.2313 56.6504C58.8622 58.4918 53.022 58.4237 47.6974 56.4575C44.562 55.3035 39.8097 53.5625 37.9362 49.0153C37.1745 47.0461 36.9686 44.9055 37.3411 42.8273Z" fill="url(#paint50_radial_1_1811)"/>
<defs>
<linearGradient id="paint0_linear_1_1811" x1="52.861" y1="59.5346" x2="45.8136" y2="57.2254" gradientUnits="userSpaceOnUse">
<stop offset="0.032" stop-color="#F40012"/>
<stop offset="0.344" stop-color="#F55B00"/>
<stop offset="0.86" stop-color="#A71E10"/>
</linearGradient>
<radialGradient id="paint1_radial_1_1811" cx="0" cy="0" r="1" gradientUnits="userSpaceOnUse" gradientTransform="translate(49.0503 61.1344) rotate(-179.782) scale(0.99885)">
<stop stop-color="#888888"/>
<stop offset="1"/>
</radialGradient>
<linearGradient id="paint2_linear_1_1811" x1="24.4972" y1="28.6167" x2="26.3666" y2="28.6238" gradientUnits="userSpaceOnUse">
<stop stop-color="#FF823D"/>
<stop offset="1" stop-color="#603A1A"/>
</linearGradient>
<linearGradient id="paint3_linear_1_1811" x1="24.5957" y1="31.273" x2="29.0115" y2="36.2545" gradientUnits="userSpaceOnUse">
<stop stop-color="#F44E14"/>
<stop offset="0.273" stop-color="#F04D14"/>
<stop offset="0.55" stop-color="#E44A14"/>
<stop offset="0.827" stop-color="#D04515"/>
<stop offset="1" stop-color="#BF4115"/>
</linearGradient>
<linearGradient id="paint4_linear_1_1811" x1="33.0246" y1="36.1442" x2="30.1764" y2="39.0928" gradientUnits="userSpaceOnUse">
<stop offset="0.177" stop-color="#F44E14"/>
<stop offset="1" stop-color="#F54A00"/>
</linearGradient>
<linearGradient id="paint5_linear_1_1811" x1="33.4153" y1="36.6185" x2="41.5467" y2="38.1683" gradientUnits="userSpaceOnUse">
<stop stop-color="#F32D00"/>
<stop offset="1" stop-color="#823200"/>
</linearGradient>
<linearGradient id="paint6_linear_1_1811" x1="31.3371" y1="20.6124" x2="34.4263" y2="21.3564" gradientUnits="userSpaceOnUse">
<stop offset="0.589" stop-color="#FF823D"/>
<stop offset="1" stop-color="#603A1A"/>
</linearGradient>
<linearGradient id="paint7_linear_1_1811" x1="32.0963" y1="24.3408" x2="35.3748" y2="28.951" gradientUnits="userSpaceOnUse">
<stop stop-color="#F44E14"/>
<stop offset="0.273" stop-color="#F04D14"/>
<stop offset="0.55" stop-color="#E44A14"/>
<stop offset="0.827" stop-color="#D04515"/>
<stop offset="1" stop-color="#BF4115"/>
</linearGradient>
<linearGradient id="paint8_linear_1_1811" x1="38.9163" y1="30.5822" x2="35.3422" y2="32.5903" gradientUnits="userSpaceOnUse">
<stop offset="0.177" stop-color="#F44E14"/>
<stop offset="1" stop-color="#F54A00"/>
</linearGradient>
<linearGradient id="paint9_linear_1_1811" x1="39.0102" y1="31.4562" x2="47.621" y2="35.4482" gradientUnits="userSpaceOnUse">
<stop stop-color="#F32D00"/>
<stop offset="1" stop-color="#823200"/>
</linearGradient>
<linearGradient id="paint10_linear_1_1811" x1="21.0117" y1="58.9427" x2="22.8481" y2="58.9497" gradientUnits="userSpaceOnUse">
<stop stop-color="#FF823D"/>
<stop offset="1" stop-color="#603A1A"/>
</linearGradient>
<linearGradient id="paint11_linear_1_1811" x1="15.5218" y1="40.4224" x2="19.3553" y2="38.4442" gradientUnits="userSpaceOnUse">
<stop offset="0.377" stop-color="#FF823D"/>
<stop offset="0.916" stop-color="#603A1A"/>
</linearGradient>
<linearGradient id="paint12_linear_1_1811" x1="19.6187" y1="41.8679" x2="25.4707" y2="43.5177" gradientUnits="userSpaceOnUse">
<stop stop-color="#F44E14"/>
<stop offset="0.273" stop-color="#F04D14"/>
<stop offset="0.55" stop-color="#E44A14"/>
<stop offset="0.827" stop-color="#D04515"/>
<stop offset="1" stop-color="#BF4115"/>
</linearGradient>
<linearGradient id="paint13_linear_1_1811" x1="28.9535" y1="44.6137" x2="28.4848" y2="42.374" gradientUnits="userSpaceOnUse">
<stop offset="0.177" stop-color="#F44E14"/>
<stop offset="1" stop-color="#F54A00"/>
</linearGradient>
<linearGradient id="paint14_linear_1_1811" x1="31.4911" y1="42.3937" x2="36.5377" y2="42.0328" gradientUnits="userSpaceOnUse">
<stop stop-color="#F32D00"/>
<stop offset="1" stop-color="#823200"/>
</linearGradient>
<linearGradient id="paint15_linear_1_1811" x1="22.522" y1="56.8668" x2="23.7319" y2="52.4235" gradientUnits="userSpaceOnUse">
<stop stop-color="#F44E14"/>
<stop offset="0.273" stop-color="#F04D14"/>
<stop offset="0.55" stop-color="#E44A14"/>
<stop offset="0.827" stop-color="#D04515"/>
<stop offset="1" stop-color="#BF4115"/>
</linearGradient>
<linearGradient id="paint16_linear_1_1811" x1="26.5038" y1="50.0644" x2="25.0659" y2="48.6914" gradientUnits="userSpaceOnUse">
<stop offset="0.177" stop-color="#F44E14"/>
<stop offset="1" stop-color="#F54A00"/>
</linearGradient>
<linearGradient id="paint17_linear_1_1811" x1="27.7715" y1="46.8982" x2="35.1532" y2="45.679" gradientUnits="userSpaceOnUse">
<stop stop-color="#F32D00"/>
<stop offset="1" stop-color="#823200"/>
</linearGradient>
<linearGradient id="paint18_linear_1_1811" x1="52.1516" y1="77.1138" x2="48.1941" y2="77.1981" gradientUnits="userSpaceOnUse">
<stop offset="0.231" stop-color="#603A1A"/>
<stop offset="0.763" stop-color="#A71E10"/>
</linearGradient>
<linearGradient id="paint19_linear_1_1811" x1="45.5152" y1="82.3254" x2="46.0976" y2="74.4262" gradientUnits="userSpaceOnUse">
<stop offset="0.231" stop-color="#603A1A"/>
<stop offset="0.763" stop-color="#A71E10"/>
</linearGradient>
<radialGradient id="paint20_radial_1_1811" cx="0" cy="0" r="1" gradientUnits="userSpaceOnUse" gradientTransform="translate(47.0198 79.7135) rotate(-164.832) scale(7.7843 5.5248)">
<stop offset="0.408" stop-color="#F5460A"/>
<stop offset="0.527" stop-color="#D8430C"/>
<stop offset="0.742" stop-color="#A83F0F"/>
<stop offset="0.906" stop-color="#8B3C11"/>
<stop offset="1" stop-color="#803B12"/>
</radialGradient>
<linearGradient id="paint21_linear_1_1811" x1="47.1035" y1="72.6187" x2="43.917" y2="76.9641" gradientUnits="userSpaceOnUse">
<stop offset="0.22" stop-color="#F32C19"/>
<stop offset="0.866" stop-color="#F66E28"/>
</linearGradient>
<linearGradient id="paint22_linear_1_1811" x1="27.3789" y1="58.3597" x2="46.1627" y2="83.0867" gradientUnits="userSpaceOnUse">
<stop offset="0.118" stop-color="#854E25"/>
<stop offset="0.49" stop-color="#F32C19"/>
<stop offset="0.668" stop-color="#FF7E00"/>
</linearGradient>
<linearGradient id="paint23_linear_1_1811" x1="31.454" y1="49.5566" x2="31.0926" y2="73.5887" gradientUnits="userSpaceOnUse">
<stop offset="0.29" stop-color="#854E25"/>
<stop offset="0.536" stop-color="#F32C19"/>
<stop offset="0.668" stop-color="#FF7E00"/>
</linearGradient>
<radialGradient id="paint24_radial_1_1811" cx="0" cy="0" r="1" gradientUnits="userSpaceOnUse" gradientTransform="translate(48.6984 44.2117) rotate(0.218115) scale(29.1246 29.1246)">
<stop offset="0.413" stop-color="#854E25"/>
<stop offset="0.424" stop-color="#934A23"/>
<stop offset="0.461" stop-color="#BC3D1F"/>
<stop offset="0.495" stop-color="#DA341C"/>
<stop offset="0.524" stop-color="#EC2E1A"/>
<stop offset="0.544" stop-color="#F32C19"/>
<stop offset="0.701" stop-color="#FF7E00"/>
</radialGradient>
<linearGradient id="paint25_linear_1_1811" x1="58.9909" y1="59.4839" x2="66.054" y2="57.2267" gradientUnits="userSpaceOnUse">
<stop offset="0.032" stop-color="#F40012"/>
<stop offset="0.344" stop-color="#F55B00"/>
<stop offset="0.86" stop-color="#A71E10"/>
</linearGradient>
<radialGradient id="paint26_radial_1_1811" cx="0" cy="0" r="1" gradientUnits="userSpaceOnUse" gradientTransform="translate(62.7892 61.1126) rotate(0.218115) scale(0.99885)">
<stop stop-color="#888888"/>
<stop offset="1"/>
</radialGradient>
<linearGradient id="paint27_linear_1_1811" x1="66.5048" y1="28.7026" x2="68.3758" y2="28.7097" gradientUnits="userSpaceOnUse">
<stop stop-color="#FF823D"/>
<stop offset="1" stop-color="#603A1A"/>
</linearGradient>
<linearGradient id="paint28_linear_1_1811" x1="66.6034" y1="31.3589" x2="71.0192" y2="36.3387" gradientUnits="userSpaceOnUse">
<stop stop-color="#F44E14"/>
<stop offset="0.273" stop-color="#F04D14"/>
<stop offset="0.55" stop-color="#E44A14"/>
<stop offset="0.827" stop-color="#D04515"/>
<stop offset="1" stop-color="#BF4115"/>
</linearGradient>
<linearGradient id="paint29_linear_1_1811" x1="79.2556" y1="36.2502" x2="82.0809" y2="39.2207" gradientUnits="userSpaceOnUse">
<stop offset="0.177" stop-color="#F44E14"/>
<stop offset="1" stop-color="#F54A00"/>
</linearGradient>
<linearGradient id="paint30_linear_1_1811" x1="75.4247" y1="36.7043" x2="83.5561" y2="38.2542" gradientUnits="userSpaceOnUse">
<stop stop-color="#F32D00"/>
<stop offset="1" stop-color="#823200"/>
</linearGradient>
<linearGradient id="paint31_linear_1_1811" x1="73.3446" y1="20.6982" x2="76.4338" y2="21.4423" gradientUnits="userSpaceOnUse">
<stop offset="0.589" stop-color="#FF823D"/>
<stop offset="1" stop-color="#603A1A"/>
</linearGradient>
<linearGradient id="paint32_linear_1_1811" x1="74.1038" y1="24.4267" x2="77.3824" y2="29.0369" gradientUnits="userSpaceOnUse">
<stop stop-color="#F44E14"/>
<stop offset="0.273" stop-color="#F04D14"/>
<stop offset="0.55" stop-color="#E44A14"/>
<stop offset="0.827" stop-color="#D04515"/>
<stop offset="1" stop-color="#BF4115"/>
</linearGradient>
<linearGradient id="paint33_linear_1_1811" x1="73.1829" y1="30.6112" x2="76.742" y2="32.6459" gradientUnits="userSpaceOnUse">
<stop offset="0.177" stop-color="#F44E14"/>
<stop offset="1" stop-color="#F54A00"/>
</linearGradient>
<linearGradient id="paint34_linear_1_1811" x1="81.0194" y1="31.5421" x2="89.6287" y2="35.5341" gradientUnits="userSpaceOnUse">
<stop stop-color="#F32D00"/>
<stop offset="1" stop-color="#823200"/>
</linearGradient>
<linearGradient id="paint35_linear_1_1811" x1="63.0193" y1="59.0285" x2="64.8557" y2="59.0355" gradientUnits="userSpaceOnUse">
<stop stop-color="#FF823D"/>
<stop offset="1" stop-color="#603A1A"/>
</linearGradient>
<linearGradient id="paint36_linear_1_1811" x1="57.5311" y1="40.5082" x2="61.3629" y2="38.5284" gradientUnits="userSpaceOnUse">
<stop offset="0.377" stop-color="#FF823D"/>
<stop offset="0.916" stop-color="#603A1A"/>
</linearGradient>
<linearGradient id="paint37_linear_1_1811" x1="61.6263" y1="41.9538" x2="67.4799" y2="43.6036" gradientUnits="userSpaceOnUse">
<stop stop-color="#F44E14"/>
<stop offset="0.273" stop-color="#F04D14"/>
<stop offset="0.55" stop-color="#E44A14"/>
<stop offset="0.827" stop-color="#D04515"/>
<stop offset="1" stop-color="#BF4115"/>
</linearGradient>
<linearGradient id="paint38_linear_1_1811" x1="83.0113" y1="44.7438" x2="83.4954" y2="42.5077" gradientUnits="userSpaceOnUse">
<stop offset="0.177" stop-color="#F44E14"/>
<stop offset="1" stop-color="#F54A00"/>
</linearGradient>
<linearGradient id="paint39_linear_1_1811" x1="73.5004" y1="42.4795" x2="78.547" y2="42.1186" gradientUnits="userSpaceOnUse">
<stop stop-color="#F32D00"/>
<stop offset="1" stop-color="#823200"/>
</linearGradient>
<linearGradient id="paint40_linear_1_1811" x1="64.5296" y1="56.9527" x2="65.7396" y2="52.5077" gradientUnits="userSpaceOnUse">
<stop stop-color="#F44E14"/>
<stop offset="0.273" stop-color="#F04D14"/>
<stop offset="0.55" stop-color="#E44A14"/>
<stop offset="0.827" stop-color="#D04515"/>
<stop offset="1" stop-color="#BF4115"/>
</linearGradient>
<linearGradient id="paint41_linear_1_1811" x1="85.4177" y1="50.213" x2="86.866" y2="48.8527" gradientUnits="userSpaceOnUse">
<stop offset="0.177" stop-color="#F44E14"/>
<stop offset="1" stop-color="#F54A00"/>
</linearGradient>
<linearGradient id="paint42_linear_1_1811" x1="69.7791" y1="46.9841" x2="77.1624" y2="45.7649" gradientUnits="userSpaceOnUse">
<stop stop-color="#F32D00"/>
<stop offset="1" stop-color="#823200"/>
</linearGradient>
<linearGradient id="paint43_linear_1_1811" x1="59.5885" y1="76.8196" x2="63.5453" y2="76.9329" gradientUnits="userSpaceOnUse">
<stop offset="0.231" stop-color="#603A1A"/>
<stop offset="0.763" stop-color="#A71E10"/>
</linearGradient>
<linearGradient id="paint44_linear_1_1811" x1="66.187" y1="82.0812" x2="65.6623" y2="74.1779" gradientUnits="userSpaceOnUse">
<stop offset="0.231" stop-color="#603A1A"/>
<stop offset="0.763" stop-color="#A71E10"/>
</linearGradient>
<radialGradient id="paint45_radial_1_1811" cx="0" cy="0" r="1" gradientUnits="userSpaceOnUse" gradientTransform="translate(64.6813 79.7224) rotate(-14.7314) scale(7.7843 5.5248)">
<stop offset="0.408" stop-color="#F5460A"/>
<stop offset="0.527" stop-color="#D8430C"/>
<stop offset="0.742" stop-color="#A83F0F"/>
<stop offset="0.906" stop-color="#8B3C11"/>
<stop offset="1" stop-color="#803B12"/>
</radialGradient>
<linearGradient id="paint46_linear_1_1811" x1="64.6693" y1="72.3615" x2="67.8244" y2="76.7316" gradientUnits="userSpaceOnUse">
<stop offset="0.22" stop-color="#F32C19"/>
<stop offset="0.866" stop-color="#F66E28"/>
</linearGradient>
<linearGradient id="paint47_linear_1_1811" x1="69.3866" y1="58.4439" x2="88.172" y2="83.1726" gradientUnits="userSpaceOnUse">
<stop offset="0.118" stop-color="#854E25"/>
<stop offset="0.49" stop-color="#F32C19"/>
<stop offset="0.668" stop-color="#FF7E00"/>
</linearGradient>
<linearGradient id="paint48_linear_1_1811" x1="73.4632" y1="49.6425" x2="73.1002" y2="73.6746" gradientUnits="userSpaceOnUse">
<stop offset="0.29" stop-color="#854E25"/>
<stop offset="0.536" stop-color="#F32C19"/>
<stop offset="0.668" stop-color="#FF7E00"/>
</linearGradient>
<radialGradient id="paint49_radial_1_1811" cx="0" cy="0" r="1" gradientUnits="userSpaceOnUse" gradientTransform="translate(90.7061 44.2975) rotate(0.218115) scale(29.1246 29.1246)">
<stop offset="0.413" stop-color="#854E25"/>
<stop offset="0.424" stop-color="#934A23"/>
<stop offset="0.461" stop-color="#BC3D1F"/>
<stop offset="0.495" stop-color="#DA341C"/>
<stop offset="0.524" stop-color="#EC2E1A"/>
<stop offset="0.544" stop-color="#F32C19"/>
<stop offset="0.701" stop-color="#FF7E00"/>
</radialGradient>
<radialGradient id="paint50_radial_1_1811" cx="0" cy="0" r="1" gradientUnits="userSpaceOnUse" gradientTransform="translate(56.336 50.1339) rotate(-179.782) scale(24.8199 13.8743)">
<stop stop-color="#FF7E00"/>
<stop offset="0.39" stop-color="#E82300"/>
<stop offset="0.623" stop-color="#CC3013"/>
<stop offset="0.626" stop-color="#CC3013"/>
<stop offset="0.781" stop-color="#C12305"/>
<stop offset="0.915" stop-color="#BD1E00"/>
</radialGradient>
</defs>
</svg>
