<svg width="10" height="15" viewBox="0 0 10 15" fill="none" xmlns="http://www.w3.org/2000/svg">
<path d="M4.25 14C4.25 14.4142 4.58579 14.75 5 14.75C5.41421 14.75 5.75 14.4142 5.75 14H4.25ZM5 1L5.55352 0.493923C5.41144 0.338518 5.21057 0.25 5 0.25C4.78943 0.25 4.58856 0.338518 4.44648 0.493923L5 1ZM8.44648 5.88108C8.72598 6.18678 9.20038 6.20802 9.50608 5.92852C9.81178 5.64902 9.83302 5.17462 9.55352 4.86892L8.44648 5.88108ZM0.446478 4.86892C0.16698 5.17462 0.188222 5.64902 0.493923 5.92852C0.799625 6.20802 1.27402 6.18678 1.55352 5.88108L0.446478 4.86892ZM5.75 14V1H4.25V14H5.75ZM4.44648 1.50608L8.44648 5.88108L9.55352 4.86892L5.55352 0.493923L4.44648 1.50608ZM4.44648 0.493923L0.446478 4.86892L1.55352 5.88108L5.55352 1.50608L4.44648 0.493923Z" fill="#1C274C"/>
</svg>
